<svg xmlns="http://www.w3.org/2000/svg" xmlns:xlink="http://www.w3.org/1999/xlink" width="500" zoomAndPan="magnify" viewBox="0 0 375 149.999998" height="200" preserveAspectRatio="xMidYMid meet" version="1.0"><defs><g/></defs><g fill="#000000" fill-opacity="1"><g transform="translate(32.838443, 71.562567)"><g><path d="M 41.5 -57.6875 C 50.15625 -57.6875 56.675781 -56.023438 61.0625 -52.703125 C 65.457031 -49.390625 67.65625 -44.523438 67.65625 -38.109375 C 67.65625 -34.929688 67.078125 -31.265625 65.921875 -27.109375 C 64.015625 -20.410156 61.441406 -15.097656 58.203125 -11.171875 C 54.972656 -7.242188 50.71875 -4.382812 45.4375 -2.59375 C 40.15625 -0.800781 33.382812 0.0625 25.125 0 L 1.5625 -0.09375 C 0.34375 -0.09375 -0.59375 -0.289062 -1.25 -0.6875 C -1.914062 -1.09375 -2.25 -1.644531 -2.25 -2.34375 C -2.25 -2.6875 -2.164062 -3.0625 -2 -3.46875 C -1.820312 -3.988281 -1.570312 -4.363281 -1.25 -4.59375 C -0.9375 -4.820312 -0.460938 -5.140625 0.171875 -5.546875 C 1.097656 -6.066406 1.832031 -6.644531 2.375 -7.28125 C 2.925781 -7.914062 3.40625 -8.925781 3.8125 -10.3125 L 14.375 -47.5625 C 14.601562 -48.3125 14.71875 -49.03125 14.71875 -49.71875 C 14.71875 -50.351562 14.617188 -50.882812 14.421875 -51.3125 C 14.222656 -51.75 13.945312 -52.257812 13.59375 -52.84375 C 13.082031 -53.59375 12.828125 -54.195312 12.828125 -54.65625 C 12.828125 -54.832031 12.882812 -55.148438 13 -55.609375 C 13.226562 -56.359375 13.726562 -56.890625 14.5 -57.203125 C 15.28125 -57.523438 16.484375 -57.6875 18.109375 -57.6875 Z M 43.75 -29.015625 C 45.25 -34.441406 46 -38.71875 46 -41.84375 C 46 -44.90625 45.363281 -47.007812 44.09375 -48.15625 C 42.820312 -49.3125 41.003906 -49.890625 38.640625 -49.890625 L 36.734375 -49.890625 L 25.03125 -7.796875 L 27.109375 -7.796875 C 29.765625 -7.796875 32.003906 -8.359375 33.828125 -9.484375 C 35.648438 -10.609375 37.335938 -12.6875 38.890625 -15.71875 C 40.453125 -18.75 42.070312 -23.179688 43.75 -29.015625 Z M 43.75 -29.015625 "/></g></g></g><g fill="#000000" fill-opacity="1"><g transform="translate(99.703956, 71.562567)"><g><path d="M 22.78125 -45.828125 C 26.132812 -45.828125 28.585938 -45.191406 30.140625 -43.921875 C 31.703125 -42.648438 32.484375 -40.914062 32.484375 -38.71875 C 32.484375 -37.394531 32.285156 -36.125 31.890625 -34.90625 L 23.921875 -9.015625 C 23.742188 -8.316406 23.65625 -7.707031 23.65625 -7.1875 C 23.65625 -6.4375 23.796875 -5.84375 24.078125 -5.40625 C 24.367188 -4.976562 24.773438 -4.5625 25.296875 -4.15625 C 25.703125 -3.75 25.988281 -3.414062 26.15625 -3.15625 C 26.332031 -2.894531 26.363281 -2.566406 26.25 -2.171875 C 25.957031 -1.421875 25.378906 -0.867188 24.515625 -0.515625 C 23.648438 -0.171875 22.320312 0 20.53125 0 L 0.78125 0 C -0.71875 0 -1.8125 -0.242188 -2.5 -0.734375 C -3.195312 -1.222656 -3.429688 -1.875 -3.203125 -2.6875 C -2.972656 -3.375 -2.363281 -3.976562 -1.375 -4.5 C -0.507812 -4.96875 0.207031 -5.519531 0.78125 -6.15625 C 1.363281 -6.789062 1.859375 -7.800781 2.265625 -9.1875 L 9.796875 -34.21875 C 9.960938 -34.738281 10.046875 -35.171875 10.046875 -35.515625 C 10.046875 -36.148438 9.898438 -36.65625 9.609375 -37.03125 C 9.328125 -37.40625 8.898438 -37.796875 8.328125 -38.203125 C 7.742188 -38.660156 7.335938 -39.0625 7.109375 -39.40625 C 6.878906 -39.757812 6.847656 -40.222656 7.015625 -40.796875 C 7.367188 -42.128906 9.191406 -43.300781 12.484375 -44.3125 C 15.773438 -45.320312 19.207031 -45.828125 22.78125 -45.828125 Z M 28.578125 -64.96875 C 30.835938 -64.96875 32.71875 -64.226562 34.21875 -62.75 C 35.71875 -61.28125 36.46875 -59.476562 36.46875 -57.34375 C 36.46875 -55.84375 36.078125 -54.367188 35.296875 -52.921875 C 34.515625 -51.484375 33.414062 -50.316406 32 -49.421875 C 30.59375 -48.523438 29.019531 -48.078125 27.28125 -48.078125 C 25.09375 -48.078125 23.257812 -48.8125 21.78125 -50.28125 C 20.3125 -51.757812 19.546875 -53.59375 19.484375 -55.78125 C 19.484375 -57.226562 19.859375 -58.660156 20.609375 -60.078125 C 21.359375 -61.492188 22.425781 -62.660156 23.8125 -63.578125 C 25.207031 -64.503906 26.796875 -64.96875 28.578125 -64.96875 Z M 28.578125 -64.96875 "/></g></g></g><g fill="#000000" fill-opacity="1"><g transform="translate(131.404443, 71.562567)"><g><path d="M 53.625 -11.953125 C 53.507812 -11.722656 53.453125 -11.378906 53.453125 -10.921875 C 53.453125 -10.515625 53.550781 -10.191406 53.75 -9.953125 C 53.945312 -9.722656 54.222656 -9.609375 54.578125 -9.609375 C 55.265625 -9.609375 55.851562 -9.910156 56.34375 -10.515625 C 56.84375 -11.128906 57.175781 -11.4375 57.34375 -11.4375 C 57.632812 -11.4375 57.863281 -11.25 58.03125 -10.875 C 58.207031 -10.5 58.296875 -10.050781 58.296875 -9.53125 C 58.359375 -7.851562 57.8125 -6.21875 56.65625 -4.625 C 55.5 -3.039062 53.804688 -1.742188 51.578125 -0.734375 C 49.359375 0.273438 46.691406 0.78125 43.578125 0.78125 C 39.765625 0.78125 36.726562 -0.0976562 34.46875 -1.859375 C 32.21875 -3.617188 31.066406 -5.972656 31.015625 -8.921875 C 31.015625 -11.054688 31.535156 -13.453125 32.578125 -16.109375 L 37.328125 -28.59375 C 37.617188 -29.34375 37.765625 -29.945312 37.765625 -30.40625 C 37.765625 -31.15625 37.519531 -31.742188 37.03125 -32.171875 C 36.539062 -32.609375 35.945312 -32.828125 35.25 -32.828125 C 33.976562 -32.828125 32.765625 -32.234375 31.609375 -31.046875 C 30.460938 -29.867188 29.628906 -28.414062 29.109375 -26.6875 L 23.734375 -9.015625 C 23.503906 -8.378906 23.390625 -7.769531 23.390625 -7.1875 C 23.390625 -6.5 23.53125 -5.9375 23.8125 -5.5 C 24.101562 -5.0625 24.507812 -4.613281 25.03125 -4.15625 C 25.4375 -3.8125 25.722656 -3.492188 25.890625 -3.203125 C 26.066406 -2.910156 26.097656 -2.566406 25.984375 -2.171875 C 25.753906 -1.421875 25.207031 -0.867188 24.34375 -0.515625 C 23.476562 -0.171875 22.117188 0 20.265625 0 L 0.515625 0 C -0.984375 0 -2.0625 -0.242188 -2.71875 -0.734375 C -3.382812 -1.222656 -3.632812 -1.875 -3.46875 -2.6875 C -3.238281 -3.375 -2.628906 -3.976562 -1.640625 -4.5 C -0.773438 -4.96875 -0.0546875 -5.519531 0.515625 -6.15625 C 1.097656 -6.789062 1.59375 -7.800781 2 -9.1875 L 9.703125 -34.21875 C 9.816406 -34.507812 9.875 -34.910156 9.875 -35.421875 C 9.875 -36.054688 9.742188 -36.546875 9.484375 -36.890625 C 9.222656 -37.242188 8.804688 -37.679688 8.234375 -38.203125 C 7.648438 -38.660156 7.242188 -39.0625 7.015625 -39.40625 C 6.785156 -39.757812 6.757812 -40.222656 6.9375 -40.796875 C 7.28125 -42.128906 9.097656 -43.300781 12.390625 -44.3125 C 15.679688 -45.320312 19.117188 -45.828125 22.703125 -45.828125 C 25.585938 -45.828125 27.863281 -45.03125 29.53125 -43.4375 C 31.207031 -41.851562 31.960938 -39.644531 31.796875 -36.8125 C 34.160156 -40.21875 36.671875 -42.570312 39.328125 -43.875 C 41.984375 -45.175781 44.867188 -45.828125 47.984375 -45.828125 C 51.515625 -45.828125 54.359375 -44.757812 56.515625 -42.625 C 58.679688 -40.488281 59.765625 -37.710938 59.765625 -34.296875 C 59.765625 -32.515625 59.476562 -30.753906 58.90625 -29.015625 Z M 53.625 -11.953125 "/></g></g></g><g fill="#000000" fill-opacity="1"><g transform="translate(193.419607, 71.562567)"><g><path d="M 22.78125 -45.828125 C 26.132812 -45.828125 28.585938 -45.191406 30.140625 -43.921875 C 31.703125 -42.648438 32.484375 -40.914062 32.484375 -38.71875 C 32.484375 -37.394531 32.285156 -36.125 31.890625 -34.90625 L 23.921875 -9.015625 C 23.742188 -8.316406 23.65625 -7.707031 23.65625 -7.1875 C 23.65625 -6.4375 23.796875 -5.84375 24.078125 -5.40625 C 24.367188 -4.976562 24.773438 -4.5625 25.296875 -4.15625 C 25.703125 -3.75 25.988281 -3.414062 26.15625 -3.15625 C 26.332031 -2.894531 26.363281 -2.566406 26.25 -2.171875 C 25.957031 -1.421875 25.378906 -0.867188 24.515625 -0.515625 C 23.648438 -0.171875 22.320312 0 20.53125 0 L 0.78125 0 C -0.71875 0 -1.8125 -0.242188 -2.5 -0.734375 C -3.195312 -1.222656 -3.429688 -1.875 -3.203125 -2.6875 C -2.972656 -3.375 -2.363281 -3.976562 -1.375 -4.5 C -0.507812 -4.96875 0.207031 -5.519531 0.78125 -6.15625 C 1.363281 -6.789062 1.859375 -7.800781 2.265625 -9.1875 L 9.796875 -34.21875 C 9.960938 -34.738281 10.046875 -35.171875 10.046875 -35.515625 C 10.046875 -36.148438 9.898438 -36.65625 9.609375 -37.03125 C 9.328125 -37.40625 8.898438 -37.796875 8.328125 -38.203125 C 7.742188 -38.660156 7.335938 -39.0625 7.109375 -39.40625 C 6.878906 -39.757812 6.847656 -40.222656 7.015625 -40.796875 C 7.367188 -42.128906 9.191406 -43.300781 12.484375 -44.3125 C 15.773438 -45.320312 19.207031 -45.828125 22.78125 -45.828125 Z M 28.578125 -64.96875 C 30.835938 -64.96875 32.71875 -64.226562 34.21875 -62.75 C 35.71875 -61.28125 36.46875 -59.476562 36.46875 -57.34375 C 36.46875 -55.84375 36.078125 -54.367188 35.296875 -52.921875 C 34.515625 -51.484375 33.414062 -50.316406 32 -49.421875 C 30.59375 -48.523438 29.019531 -48.078125 27.28125 -48.078125 C 25.09375 -48.078125 23.257812 -48.8125 21.78125 -50.28125 C 20.3125 -51.757812 19.546875 -53.59375 19.484375 -55.78125 C 19.484375 -57.226562 19.859375 -58.660156 20.609375 -60.078125 C 21.359375 -61.492188 22.425781 -62.660156 23.8125 -63.578125 C 25.207031 -64.503906 26.796875 -64.96875 28.578125 -64.96875 Z M 28.578125 -64.96875 "/></g></g></g><g fill="#000000" fill-opacity="1"><g transform="translate(225.120095, 71.562567)"><g><path d="M 53.625 -11.953125 C 53.507812 -11.722656 53.453125 -11.378906 53.453125 -10.921875 C 53.453125 -10.515625 53.550781 -10.191406 53.75 -9.953125 C 53.945312 -9.722656 54.222656 -9.609375 54.578125 -9.609375 C 55.265625 -9.609375 55.851562 -9.910156 56.34375 -10.515625 C 56.84375 -11.128906 57.175781 -11.4375 57.34375 -11.4375 C 57.632812 -11.4375 57.863281 -11.25 58.03125 -10.875 C 58.207031 -10.5 58.296875 -10.050781 58.296875 -9.53125 C 58.359375 -7.851562 57.8125 -6.21875 56.65625 -4.625 C 55.5 -3.039062 53.804688 -1.742188 51.578125 -0.734375 C 49.359375 0.273438 46.691406 0.78125 43.578125 0.78125 C 39.765625 0.78125 36.726562 -0.0976562 34.46875 -1.859375 C 32.21875 -3.617188 31.066406 -5.972656 31.015625 -8.921875 C 31.015625 -11.054688 31.535156 -13.453125 32.578125 -16.109375 L 37.328125 -28.59375 C 37.617188 -29.34375 37.765625 -29.945312 37.765625 -30.40625 C 37.765625 -31.15625 37.519531 -31.742188 37.03125 -32.171875 C 36.539062 -32.609375 35.945312 -32.828125 35.25 -32.828125 C 33.976562 -32.828125 32.765625 -32.234375 31.609375 -31.046875 C 30.460938 -29.867188 29.628906 -28.414062 29.109375 -26.6875 L 23.734375 -9.015625 C 23.503906 -8.378906 23.390625 -7.769531 23.390625 -7.1875 C 23.390625 -6.5 23.53125 -5.9375 23.8125 -5.5 C 24.101562 -5.0625 24.507812 -4.613281 25.03125 -4.15625 C 25.4375 -3.8125 25.722656 -3.492188 25.890625 -3.203125 C 26.066406 -2.910156 26.097656 -2.566406 25.984375 -2.171875 C 25.753906 -1.421875 25.207031 -0.867188 24.34375 -0.515625 C 23.476562 -0.171875 22.117188 0 20.265625 0 L 0.515625 0 C -0.984375 0 -2.0625 -0.242188 -2.71875 -0.734375 C -3.382812 -1.222656 -3.632812 -1.875 -3.46875 -2.6875 C -3.238281 -3.375 -2.628906 -3.976562 -1.640625 -4.5 C -0.773438 -4.96875 -0.0546875 -5.519531 0.515625 -6.15625 C 1.097656 -6.789062 1.59375 -7.800781 2 -9.1875 L 9.703125 -34.21875 C 9.816406 -34.507812 9.875 -34.910156 9.875 -35.421875 C 9.875 -36.054688 9.742188 -36.546875 9.484375 -36.890625 C 9.222656 -37.242188 8.804688 -37.679688 8.234375 -38.203125 C 7.648438 -38.660156 7.242188 -39.0625 7.015625 -39.40625 C 6.785156 -39.757812 6.757812 -40.222656 6.9375 -40.796875 C 7.28125 -42.128906 9.097656 -43.300781 12.390625 -44.3125 C 15.679688 -45.320312 19.117188 -45.828125 22.703125 -45.828125 C 25.585938 -45.828125 27.863281 -45.03125 29.53125 -43.4375 C 31.207031 -41.851562 31.960938 -39.644531 31.796875 -36.8125 C 34.160156 -40.21875 36.671875 -42.570312 39.328125 -43.875 C 41.984375 -45.175781 44.867188 -45.828125 47.984375 -45.828125 C 51.515625 -45.828125 54.359375 -44.757812 56.515625 -42.625 C 58.679688 -40.488281 59.765625 -37.710938 59.765625 -34.296875 C 59.765625 -32.515625 59.476562 -30.753906 58.90625 -29.015625 Z M 53.625 -11.953125 "/></g></g></g><g fill="#000000" fill-opacity="1"><g transform="translate(287.135258, 71.562567)"><g><path d="M 52.5 -59.9375 C 54.34375 -59.9375 56.144531 -59.546875 57.90625 -58.765625 C 59.664062 -57.992188 61.109375 -56.925781 62.234375 -55.5625 C 63.359375 -54.207031 63.921875 -52.753906 63.921875 -51.203125 C 63.921875 -47.785156 61.613281 -46.078125 57 -46.078125 C 55.664062 -46.078125 54.640625 -46.175781 53.921875 -46.375 C 53.203125 -46.582031 52.351562 -46.921875 51.375 -47.390625 C 51.195312 -46.984375 51.109375 -46.40625 51.109375 -45.65625 C 51.109375 -44.726562 51.265625 -43.628906 51.578125 -42.359375 C 51.898438 -41.085938 52.289062 -39.90625 52.75 -38.8125 C 53.96875 -37.019531 54.578125 -34.878906 54.578125 -32.390625 C 54.578125 -31.296875 54.429688 -29.96875 54.140625 -28.40625 C 53.441406 -25.40625 51.921875 -22.660156 49.578125 -20.171875 C 47.242188 -17.691406 44.242188 -15.742188 40.578125 -14.328125 C 36.910156 -12.921875 32.882812 -12.21875 28.5 -12.21875 C 25.144531 -12.21875 22 -12.445312 19.0625 -12.90625 C 18.195312 -12.15625 17.765625 -11.234375 17.765625 -10.140625 C 17.765625 -9.390625 18.109375 -8.765625 18.796875 -8.265625 C 19.492188 -7.773438 20.648438 -7.53125 22.265625 -7.53125 L 35.25 -7.53125 C 39.695312 -7.53125 43.160156 -6.765625 45.640625 -5.234375 C 48.128906 -3.703125 49.375 -1.523438 49.375 1.296875 C 49.375 2.335938 49.203125 3.40625 48.859375 4.5 C 48.160156 6.757812 46.582031 8.851562 44.125 10.78125 C 41.675781 12.71875 38.226562 14.289062 33.78125 15.5 C 29.332031 16.71875 23.929688 17.328125 17.578125 17.328125 C 11.921875 17.328125 7.128906 16.832031 3.203125 15.84375 C -0.722656 14.863281 -3.648438 13.519531 -5.578125 11.8125 C -7.515625 10.113281 -8.484375 8.226562 -8.484375 6.15625 C -8.484375 5.6875 -8.367188 4.992188 -8.140625 4.078125 C -7.617188 2.398438 -6.445312 1.03125 -4.625 -0.03125 C -2.8125 -1.101562 0.171875 -1.816406 4.328125 -2.171875 C 2.941406 -3.492188 2.25 -5.082031 2.25 -6.9375 C 2.25 -7.570312 2.335938 -8.234375 2.515625 -8.921875 C 3.429688 -11.921875 6.144531 -14.144531 10.65625 -15.59375 C 6.320312 -17.957031 4.15625 -21.421875 4.15625 -25.984375 C 4.15625 -27.253906 4.328125 -28.582031 4.671875 -29.96875 C 5.367188 -32.976562 6.898438 -35.707031 9.265625 -38.15625 C 11.640625 -40.613281 14.671875 -42.5625 18.359375 -44 C 22.054688 -45.445312 26.097656 -46.171875 30.484375 -46.171875 C 37.359375 -46.171875 42.757812 -45.273438 46.6875 -43.484375 C 45.820312 -44.816406 45.144531 -46.242188 44.65625 -47.765625 C 44.164062 -49.296875 43.921875 -50.695312 43.921875 -51.96875 C 43.921875 -54.164062 44.625 -56.039062 46.03125 -57.59375 C 47.445312 -59.15625 49.601562 -59.9375 52.5 -59.9375 Z M 33.703125 -29.1875 C 34.617188 -32.132812 35.078125 -34.390625 35.078125 -35.953125 C 35.078125 -37.910156 34.242188 -38.890625 32.578125 -38.890625 C 31.128906 -38.890625 29.867188 -38.179688 28.796875 -36.765625 C 27.734375 -35.359375 26.648438 -32.832031 25.546875 -29.1875 C 24.628906 -26.1875 24.171875 -23.90625 24.171875 -22.34375 C 24.171875 -20.4375 24.976562 -19.484375 26.59375 -19.484375 C 28.039062 -19.484375 29.3125 -20.207031 30.40625 -21.65625 C 31.5 -23.101562 32.597656 -25.613281 33.703125 -29.1875 Z M 16.453125 1.21875 C 14.835938 1.21875 13.367188 1.128906 12.046875 0.953125 C 11.347656 1.816406 11 2.972656 11 4.421875 C 11.0625 5.859375 11.65625 6.894531 12.78125 7.53125 C 13.90625 8.164062 15.648438 8.484375 18.015625 8.484375 C 20.898438 8.484375 23.253906 8.050781 25.078125 7.1875 C 26.898438 6.320312 27.8125 5.082031 27.8125 3.46875 C 27.8125 2.769531 27.550781 2.21875 27.03125 1.8125 C 26.507812 1.414062 25.757812 1.21875 24.78125 1.21875 Z M 16.453125 1.21875 "/></g></g></g><g fill="#000000" fill-opacity="1"><g transform="translate(82.092347, 137.562563)"><g><path d="M 23.75 -26.671875 C 23.539062 -28.429688 22.695312 -29.796875 21.21875 -30.765625 C 19.738281 -31.734375 17.921875 -32.21875 15.765625 -32.21875 C 13.398438 -32.21875 11.5 -31.660156 10.0625 -30.546875 C 8.632812 -29.429688 7.921875 -28.019531 7.921875 -26.3125 C 7.921875 -25.039062 8.3125 -24.015625 9.09375 -23.234375 C 9.875 -22.453125 10.796875 -21.84375 11.859375 -21.40625 C 12.929688 -20.976562 13.910156 -20.648438 14.796875 -20.421875 L 18.40625 -19.4375 C 19.332031 -19.195312 20.363281 -18.863281 21.5 -18.4375 C 22.644531 -18.007812 23.738281 -17.425781 24.78125 -16.6875 C 25.832031 -15.957031 26.695312 -15.019531 27.375 -13.875 C 28.0625 -12.726562 28.40625 -11.320312 28.40625 -9.65625 C 28.40625 -7.726562 27.90625 -5.988281 26.90625 -4.4375 C 25.90625 -2.894531 24.445312 -1.664062 22.53125 -0.75 C 20.613281 0.164062 18.289062 0.625 15.5625 0.625 C 11.738281 0.625 8.703125 -0.273438 6.453125 -2.078125 C 4.210938 -3.890625 2.988281 -6.253906 2.78125 -9.171875 L 7.21875 -9.171875 C 7.332031 -7.828125 7.785156 -6.71875 8.578125 -5.84375 C 9.378906 -4.96875 10.390625 -4.316406 11.609375 -3.890625 C 12.828125 -3.472656 14.144531 -3.265625 15.5625 -3.265625 C 17.195312 -3.265625 18.664062 -3.53125 19.96875 -4.0625 C 21.28125 -4.601562 22.316406 -5.359375 23.078125 -6.328125 C 23.847656 -7.296875 24.234375 -8.425781 24.234375 -9.71875 C 24.234375 -10.90625 23.898438 -11.867188 23.234375 -12.609375 C 22.578125 -13.347656 21.710938 -13.945312 20.640625 -14.40625 C 19.566406 -14.875 18.40625 -15.28125 17.15625 -15.625 L 12.78125 -16.875 C 10 -17.675781 7.796875 -18.816406 6.171875 -20.296875 C 4.554688 -21.773438 3.75 -23.710938 3.75 -26.109375 C 3.75 -28.097656 4.289062 -29.835938 5.375 -31.328125 C 6.457031 -32.816406 7.914062 -33.972656 9.75 -34.796875 C 11.582031 -35.628906 13.632812 -36.046875 15.90625 -36.046875 C 18.195312 -36.046875 20.234375 -35.632812 22.015625 -34.8125 C 23.796875 -34 25.207031 -32.882812 26.25 -31.46875 C 27.300781 -30.0625 27.859375 -28.460938 27.921875 -26.671875 Z M 23.75 -26.671875 "/></g></g></g><g fill="#000000" fill-opacity="1"><g transform="translate(113.266681, 137.562563)"><g><path d="M 11.59375 0.625 C 9.90625 0.625 8.375 0.304688 7 -0.328125 C 5.625 -0.972656 4.53125 -1.90625 3.71875 -3.125 C 2.90625 -4.351562 2.5 -5.832031 2.5 -7.5625 C 2.5 -9.09375 2.800781 -10.332031 3.40625 -11.28125 C 4.007812 -12.238281 4.8125 -12.988281 5.8125 -13.53125 C 6.820312 -14.082031 7.9375 -14.492188 9.15625 -14.765625 C 10.375 -15.035156 11.601562 -15.253906 12.84375 -15.421875 C 14.46875 -15.628906 15.785156 -15.785156 16.796875 -15.890625 C 17.804688 -16.003906 18.546875 -16.191406 19.015625 -16.453125 C 19.484375 -16.722656 19.71875 -17.1875 19.71875 -17.84375 L 19.71875 -17.984375 C 19.71875 -19.703125 19.25 -21.035156 18.3125 -21.984375 C 17.382812 -22.929688 15.976562 -23.40625 14.09375 -23.40625 C 12.132812 -23.40625 10.597656 -22.972656 9.484375 -22.109375 C 8.378906 -21.253906 7.601562 -20.34375 7.15625 -19.375 L 3.265625 -20.765625 C 3.960938 -22.378906 4.890625 -23.640625 6.046875 -24.546875 C 7.210938 -25.460938 8.484375 -26.101562 9.859375 -26.46875 C 11.242188 -26.832031 12.609375 -27.015625 13.953125 -27.015625 C 14.816406 -27.015625 15.804688 -26.910156 16.921875 -26.703125 C 18.035156 -26.503906 19.113281 -26.09375 20.15625 -25.46875 C 21.207031 -24.84375 22.078125 -23.898438 22.765625 -22.640625 C 23.460938 -21.378906 23.8125 -19.6875 23.8125 -17.5625 L 23.8125 0 L 19.71875 0 L 19.71875 -3.609375 L 19.515625 -3.609375 C 19.234375 -3.035156 18.769531 -2.414062 18.125 -1.75 C 17.476562 -1.09375 16.613281 -0.53125 15.53125 -0.0625 C 14.457031 0.394531 13.144531 0.625 11.59375 0.625 Z M 12.21875 -3.0625 C 13.84375 -3.0625 15.210938 -3.378906 16.328125 -4.015625 C 17.441406 -4.648438 18.285156 -5.46875 18.859375 -6.46875 C 19.429688 -7.476562 19.71875 -8.539062 19.71875 -9.65625 L 19.71875 -13.40625 C 19.550781 -13.195312 19.171875 -13.007812 18.578125 -12.84375 C 17.992188 -12.675781 17.320312 -12.53125 16.5625 -12.40625 C 15.8125 -12.28125 15.078125 -12.175781 14.359375 -12.09375 C 13.648438 -12.007812 13.078125 -11.9375 12.640625 -11.875 C 11.578125 -11.738281 10.582031 -11.515625 9.65625 -11.203125 C 8.738281 -10.898438 8 -10.441406 7.4375 -9.828125 C 6.875 -9.222656 6.59375 -8.398438 6.59375 -7.359375 C 6.59375 -5.929688 7.125 -4.859375 8.1875 -4.140625 C 9.25 -3.421875 10.59375 -3.0625 12.21875 -3.0625 Z M 12.21875 -3.0625 "/></g></g></g><g fill="#000000" fill-opacity="1"><g transform="translate(140.830621, 137.562563)"><g><path d="M 7.84375 -16.046875 L 7.84375 0 L 3.75 0 L 3.75 -26.671875 L 7.703125 -26.671875 L 7.703125 -22.5 L 8.0625 -22.5 C 8.6875 -23.851562 9.632812 -24.941406 10.90625 -25.765625 C 12.175781 -26.597656 13.816406 -27.015625 15.828125 -27.015625 C 18.523438 -27.015625 20.703125 -26.1875 22.359375 -24.53125 C 24.023438 -22.875 24.859375 -20.34375 24.859375 -16.9375 L 24.859375 0 L 20.765625 0 L 20.765625 -16.671875 C 20.765625 -18.765625 20.21875 -20.394531 19.125 -21.5625 C 18.039062 -22.738281 16.550781 -23.328125 14.65625 -23.328125 C 12.695312 -23.328125 11.070312 -22.691406 9.78125 -21.421875 C 8.488281 -20.160156 7.84375 -18.367188 7.84375 -16.046875 Z M 7.84375 -16.046875 "/></g></g></g><g fill="#000000" fill-opacity="1"><g transform="translate(169.436019, 137.562563)"><g/></g></g><g fill="#000000" fill-opacity="1"><g transform="translate(183.183279, 137.562563)"><g><path d="M 17.921875 -35.5625 L 22.21875 -35.5625 L 22.21875 -10.140625 C 22.21875 -6.722656 21.300781 -4.097656 19.46875 -2.265625 C 17.632812 -0.429688 15.171875 0.484375 12.078125 0.484375 C 10.140625 0.484375 8.410156 0.128906 6.890625 -0.578125 C 5.378906 -1.296875 4.1875 -2.3125 3.3125 -3.625 C 2.445312 -4.945312 2.015625 -6.515625 2.015625 -8.328125 L 6.25 -8.328125 C 6.25 -6.828125 6.796875 -5.617188 7.890625 -4.703125 C 8.992188 -3.785156 10.390625 -3.328125 12.078125 -3.328125 C 13.941406 -3.328125 15.378906 -3.910156 16.390625 -5.078125 C 17.410156 -6.242188 17.921875 -7.929688 17.921875 -10.140625 Z M 17.921875 -35.5625 "/></g></g></g><g fill="#000000" fill-opacity="1"><g transform="translate(209.705762, 137.562563)"><g><path d="M 14.578125 0.5625 C 12.171875 0.5625 10.0625 -0.0078125 8.25 -1.15625 C 6.4375 -2.300781 5.023438 -3.90625 4.015625 -5.96875 C 3.003906 -8.03125 2.5 -10.4375 2.5 -13.1875 C 2.5 -15.96875 3.003906 -18.394531 4.015625 -20.46875 C 5.023438 -22.539062 6.4375 -24.148438 8.25 -25.296875 C 10.0625 -26.441406 12.171875 -27.015625 14.578125 -27.015625 C 16.984375 -27.015625 19.09375 -26.441406 20.90625 -25.296875 C 22.71875 -24.148438 24.128906 -22.539062 25.140625 -20.46875 C 26.160156 -18.394531 26.671875 -15.96875 26.671875 -13.1875 C 26.671875 -10.4375 26.160156 -8.03125 25.140625 -5.96875 C 24.128906 -3.90625 22.71875 -2.300781 20.90625 -1.15625 C 19.09375 -0.0078125 16.984375 0.5625 14.578125 0.5625 Z M 14.578125 -3.125 C 16.410156 -3.125 17.914062 -3.59375 19.09375 -4.53125 C 20.28125 -5.46875 21.15625 -6.695312 21.71875 -8.21875 C 22.28125 -9.75 22.5625 -11.40625 22.5625 -13.1875 C 22.5625 -14.976562 22.28125 -16.640625 21.71875 -18.171875 C 21.15625 -19.710938 20.28125 -20.957031 19.09375 -21.90625 C 17.914062 -22.851562 16.410156 -23.328125 14.578125 -23.328125 C 12.753906 -23.328125 11.25 -22.851562 10.0625 -21.90625 C 8.882812 -20.957031 8.007812 -19.710938 7.4375 -18.171875 C 6.875 -16.640625 6.59375 -14.976562 6.59375 -13.1875 C 6.59375 -11.40625 6.875 -9.75 7.4375 -8.21875 C 8.007812 -6.695312 8.882812 -5.46875 10.0625 -4.53125 C 11.25 -3.59375 12.753906 -3.125 14.578125 -3.125 Z M 14.578125 -3.125 "/></g></g></g><g fill="#000000" fill-opacity="1"><g transform="translate(238.86661, 137.562563)"><g><path d="M 22.640625 -20.6875 L 18.953125 -19.65625 C 18.597656 -20.582031 18 -21.445312 17.15625 -22.25 C 16.3125 -23.0625 14.988281 -23.46875 13.1875 -23.46875 C 11.5625 -23.46875 10.207031 -23.09375 9.125 -22.34375 C 8.039062 -21.601562 7.5 -20.660156 7.5 -19.515625 C 7.5 -18.492188 7.867188 -17.6875 8.609375 -17.09375 C 9.347656 -16.507812 10.503906 -16.019531 12.078125 -15.625 L 16.046875 -14.65625 C 20.765625 -13.5 23.125 -11.09375 23.125 -7.4375 C 23.125 -5.90625 22.6875 -4.535156 21.8125 -3.328125 C 20.9375 -2.128906 19.71875 -1.179688 18.15625 -0.484375 C 16.59375 0.210938 14.773438 0.5625 12.703125 0.5625 C 9.984375 0.5625 7.734375 -0.0234375 5.953125 -1.203125 C 4.171875 -2.390625 3.039062 -4.117188 2.5625 -6.390625 L 6.453125 -7.359375 C 7.179688 -4.492188 9.242188 -3.0625 12.640625 -3.0625 C 14.546875 -3.0625 16.0625 -3.46875 17.1875 -4.28125 C 18.320312 -5.09375 18.890625 -6.070312 18.890625 -7.21875 C 18.890625 -9.101562 17.570312 -10.351562 14.9375 -10.96875 L 10.484375 -12.015625 C 8.046875 -12.585938 6.253906 -13.484375 5.109375 -14.703125 C 3.972656 -15.929688 3.40625 -17.46875 3.40625 -19.3125 C 3.40625 -20.8125 3.828125 -22.140625 4.671875 -23.296875 C 5.523438 -24.453125 6.6875 -25.359375 8.15625 -26.015625 C 9.632812 -26.679688 11.3125 -27.015625 13.1875 -27.015625 C 15.832031 -27.015625 17.910156 -26.4375 19.421875 -25.28125 C 20.929688 -24.125 22.003906 -22.59375 22.640625 -20.6875 Z M 22.640625 -20.6875 "/></g></g></g><g fill="#000000" fill-opacity="1"><g transform="translate(264.417066, 137.562563)"><g><path d="M 14.9375 0.5625 C 12.363281 0.5625 10.144531 -0.00390625 8.28125 -1.140625 C 6.425781 -2.285156 5 -3.882812 4 -5.9375 C 3 -8 2.5 -10.394531 2.5 -13.125 C 2.5 -15.851562 3 -18.257812 4 -20.34375 C 5 -22.4375 6.398438 -24.070312 8.203125 -25.25 C 10.003906 -26.425781 12.109375 -27.015625 14.515625 -27.015625 C 15.898438 -27.015625 17.269531 -26.78125 18.625 -26.3125 C 19.976562 -25.851562 21.210938 -25.101562 22.328125 -24.0625 C 23.441406 -23.03125 24.328125 -21.660156 24.984375 -19.953125 C 25.640625 -18.253906 25.96875 -16.164062 25.96875 -13.6875 L 25.96875 -11.9375 L 6.609375 -11.9375 C 6.703125 -9.09375 7.507812 -6.910156 9.03125 -5.390625 C 10.550781 -3.878906 12.519531 -3.125 14.9375 -3.125 C 16.539062 -3.125 17.921875 -3.46875 19.078125 -4.15625 C 20.234375 -4.851562 21.070312 -5.898438 21.59375 -7.296875 L 25.5625 -6.1875 C 24.9375 -4.164062 23.6875 -2.535156 21.8125 -1.296875 C 19.9375 -0.0546875 17.644531 0.5625 14.9375 0.5625 Z M 6.609375 -15.484375 L 21.8125 -15.484375 C 21.8125 -17.742188 21.148438 -19.613281 19.828125 -21.09375 C 18.503906 -22.582031 16.734375 -23.328125 14.515625 -23.328125 C 12.953125 -23.328125 11.597656 -22.960938 10.453125 -22.234375 C 9.304688 -21.503906 8.398438 -20.539062 7.734375 -19.34375 C 7.078125 -18.144531 6.703125 -16.859375 6.609375 -15.484375 Z M 6.609375 -15.484375 "/></g></g></g></svg>