<svg xmlns="http://www.w3.org/2000/svg" xmlns:xlink="http://www.w3.org/1999/xlink" width="500" zoomAndPan="magnify" viewBox="0 0 375 374.999991" height="500" preserveAspectRatio="xMidYMid meet" version="1.0"><defs><g/><clipPath id="ca3d15e85c"><path d="M 0 1 L 375 1 L 375 375 L 0 375 Z M 0 1 " clip-rule="nonzero"/></clipPath><clipPath id="7545399c9d"><path d="M 75 1.917969 L 300 1.917969 C 341.421875 1.917969 375 35.496094 375 76.917969 L 375 300 C 375 341.421875 341.421875 375 300 375 L 75 375 C 33.578125 375 0 341.421875 0 300 L 0 76.917969 C 0 35.496094 33.578125 1.917969 75 1.917969 Z M 75 1.917969 " clip-rule="nonzero"/></clipPath></defs><g clip-path="url(#ca3d15e85c)"><g clip-path="url(#7545399c9d)"><path fill="#00bf63" d="M 0 1.917969 L 374.539062 1.917969 L 374.539062 375 L 0 375 Z M 0 1.917969 " fill-opacity="1" fill-rule="nonzero"/></g></g><g fill="#000000" fill-opacity="1"><g transform="translate(31.454808, 168.723896)"><g><path d="M 39.8125 0 L 7.84375 0 L 7.84375 -90.1875 L 40.078125 -90.1875 C 49.140625 -90.1875 56.953125 -88.382812 63.515625 -84.78125 C 70.078125 -81.1875 75.117188 -76.023438 78.640625 -69.296875 C 82.160156 -62.578125 83.921875 -54.535156 83.921875 -45.171875 C 83.921875 -35.785156 82.148438 -27.710938 78.609375 -20.953125 C 75.078125 -14.203125 70.015625 -9.019531 63.421875 -5.40625 C 56.835938 -1.800781 48.96875 0 39.8125 0 Z M 26.90625 -16.34375 L 39.015625 -16.34375 C 47.492188 -16.34375 53.925781 -18.628906 58.3125 -23.203125 C 62.707031 -27.785156 64.90625 -35.109375 64.90625 -45.171875 C 64.90625 -55.179688 62.707031 -62.460938 58.3125 -67.015625 C 53.925781 -71.566406 47.507812 -73.84375 39.0625 -73.84375 L 26.90625 -73.84375 Z M 26.90625 -16.34375 "/></g></g></g><g fill="#000000" fill-opacity="1"><g transform="translate(121.63388, 168.723896)"><g><path d="M 7.484375 0 L 7.484375 -67.640625 L 26.25 -67.640625 L 26.25 0 Z M 16.90625 -76.359375 C 14.15625 -76.359375 11.78125 -77.289062 9.78125 -79.15625 C 7.78125 -81.019531 6.78125 -83.253906 6.78125 -85.859375 C 6.78125 -88.472656 7.78125 -90.703125 9.78125 -92.546875 C 11.78125 -94.398438 14.15625 -95.328125 16.90625 -95.328125 C 19.695312 -95.328125 22.085938 -94.398438 24.078125 -92.546875 C 26.078125 -90.703125 27.078125 -88.472656 27.078125 -85.859375 C 27.078125 -83.253906 26.078125 -81.019531 24.078125 -79.15625 C 22.085938 -77.289062 19.695312 -76.359375 16.90625 -76.359375 Z M 16.90625 -76.359375 "/></g></g></g><g fill="#000000" fill-opacity="1"><g transform="translate(155.362969, 168.723896)"><g><path d="M 63.765625 -48.34375 L 46.59375 -47.296875 C 46.125 -49.460938 44.929688 -51.320312 43.015625 -52.875 C 41.109375 -54.4375 38.523438 -55.21875 35.265625 -55.21875 C 32.359375 -55.21875 29.898438 -54.609375 27.890625 -53.390625 C 25.878906 -52.171875 24.890625 -50.550781 24.921875 -48.53125 C 24.890625 -46.914062 25.523438 -45.546875 26.828125 -44.421875 C 28.140625 -43.304688 30.367188 -42.414062 33.515625 -41.75 L 45.75 -39.28125 C 58.757812 -36.601562 65.273438 -30.492188 65.296875 -20.953125 C 65.296875 -16.523438 64 -12.632812 61.40625 -9.28125 C 58.8125 -5.9375 55.253906 -3.332031 50.734375 -1.46875 C 46.210938 0.394531 41.03125 1.328125 35.1875 1.328125 C 26.226562 1.328125 19.09375 -0.539062 13.78125 -4.28125 C 8.46875 -8.03125 5.367188 -13.132812 4.484375 -19.59375 L 22.9375 -20.5625 C 23.53125 -17.800781 24.890625 -15.71875 27.015625 -14.3125 C 29.140625 -12.90625 31.878906 -12.203125 35.234375 -12.203125 C 38.515625 -12.203125 41.160156 -12.847656 43.171875 -14.140625 C 45.179688 -15.429688 46.203125 -17.070312 46.234375 -19.0625 C 46.148438 -22.414062 43.257812 -24.660156 37.5625 -25.796875 L 25.84375 -28.140625 C 12.75 -30.753906 6.234375 -37.195312 6.296875 -47.46875 C 6.265625 -53.988281 8.867188 -59.125 14.109375 -62.875 C 19.347656 -66.632812 26.300781 -68.515625 34.96875 -68.515625 C 43.507812 -68.515625 50.238281 -66.707031 55.15625 -63.09375 C 60.070312 -59.488281 62.941406 -54.570312 63.765625 -48.34375 Z M 63.765625 -48.34375 "/></g></g></g><g fill="#000000" fill-opacity="1"><g transform="translate(225.022773, 168.723896)"><g><path d="M 26.25 -39.109375 L 26.25 0 L 7.484375 0 L 7.484375 -90.1875 L 25.71875 -90.1875 L 25.71875 -55.703125 L 26.515625 -55.703125 C 28.066406 -59.691406 30.535156 -62.820312 33.921875 -65.09375 C 37.316406 -67.375 41.582031 -68.515625 46.71875 -68.515625 C 53.757812 -68.515625 59.421875 -66.253906 63.703125 -61.734375 C 67.992188 -57.210938 70.128906 -50.988281 70.109375 -43.0625 L 70.109375 0 L 51.34375 0 L 51.34375 -39.71875 C 51.375 -43.882812 50.320312 -47.125 48.1875 -49.4375 C 46.0625 -51.757812 43.09375 -52.921875 39.28125 -52.921875 C 35.457031 -52.921875 32.332031 -51.707031 29.90625 -49.28125 C 27.488281 -46.863281 26.269531 -43.472656 26.25 -39.109375 Z M 26.25 -39.109375 "/></g></g></g><g fill="#000000" fill-opacity="1"><g transform="translate(31.454808, 297.723888)"><g><path d="M 39.8125 0 L 7.84375 0 L 7.84375 -90.1875 L 40.078125 -90.1875 C 49.140625 -90.1875 56.953125 -88.382812 63.515625 -84.78125 C 70.078125 -81.1875 75.117188 -76.023438 78.640625 -69.296875 C 82.160156 -62.578125 83.921875 -54.535156 83.921875 -45.171875 C 83.921875 -35.785156 82.148438 -27.710938 78.609375 -20.953125 C 75.078125 -14.203125 70.015625 -9.019531 63.421875 -5.40625 C 56.835938 -1.800781 48.96875 0 39.8125 0 Z M 26.90625 -16.34375 L 39.015625 -16.34375 C 47.492188 -16.34375 53.925781 -18.628906 58.3125 -23.203125 C 62.707031 -27.785156 64.90625 -35.109375 64.90625 -45.171875 C 64.90625 -55.179688 62.707031 -62.460938 58.3125 -67.015625 C 53.925781 -71.566406 47.507812 -73.84375 39.0625 -73.84375 L 26.90625 -73.84375 Z M 26.90625 -16.34375 "/></g></g></g><g fill="#000000" fill-opacity="1"><g transform="translate(121.63388, 297.723888)"><g><path d="M 26.765625 1.28125 C 20.304688 1.28125 14.945312 -0.40625 10.6875 -3.78125 C 6.4375 -7.15625 4.3125 -12.191406 4.3125 -18.890625 C 4.3125 -23.941406 5.5 -27.90625 7.875 -30.78125 C 10.257812 -33.65625 13.378906 -35.757812 17.234375 -37.09375 C 21.097656 -38.4375 25.257812 -39.3125 29.71875 -39.71875 C 35.59375 -40.300781 39.789062 -40.914062 42.3125 -41.5625 C 44.84375 -42.207031 46.109375 -43.617188 46.109375 -45.796875 L 46.109375 -46.0625 C 46.109375 -48.851562 45.234375 -51.007812 43.484375 -52.53125 C 41.734375 -54.0625 39.257812 -54.828125 36.0625 -54.828125 C 32.6875 -54.828125 30 -54.09375 28 -52.625 C 26.007812 -51.15625 24.691406 -49.289062 24.046875 -47.03125 L 6.6875 -48.4375 C 7.976562 -54.601562 11.1875 -59.488281 16.3125 -63.09375 C 21.4375 -66.707031 28.050781 -68.515625 36.15625 -68.515625 C 41.175781 -68.515625 45.867188 -67.722656 50.234375 -66.140625 C 54.609375 -64.554688 58.140625 -62.082031 60.828125 -58.71875 C 63.515625 -55.351562 64.859375 -50.988281 64.859375 -45.625 L 64.859375 0 L 47.078125 0 L 47.078125 -9.375 L 46.546875 -9.375 C 44.898438 -6.238281 42.441406 -3.675781 39.171875 -1.6875 C 35.898438 0.289062 31.765625 1.28125 26.765625 1.28125 Z M 32.140625 -11.671875 C 36.253906 -11.671875 39.628906 -12.863281 42.265625 -15.25 C 44.910156 -17.644531 46.234375 -20.617188 46.234375 -24.171875 L 46.234375 -31.359375 C 45.503906 -30.859375 44.367188 -30.414062 42.828125 -30.03125 C 41.285156 -29.644531 39.640625 -29.3125 37.890625 -29.03125 C 36.140625 -28.757812 34.578125 -28.519531 33.203125 -28.3125 C 29.910156 -27.84375 27.257812 -26.914062 25.25 -25.53125 C 23.238281 -24.15625 22.234375 -22.144531 22.234375 -19.5 C 22.234375 -16.914062 23.164062 -14.960938 25.03125 -13.640625 C 26.894531 -12.328125 29.265625 -11.671875 32.140625 -11.671875 Z M 32.140625 -11.671875 "/></g></g></g><g fill="#000000" fill-opacity="1"><g transform="translate(193.583395, 297.723888)"><g><path d="M 63.765625 -48.34375 L 46.59375 -47.296875 C 46.125 -49.460938 44.929688 -51.320312 43.015625 -52.875 C 41.109375 -54.4375 38.523438 -55.21875 35.265625 -55.21875 C 32.359375 -55.21875 29.898438 -54.609375 27.890625 -53.390625 C 25.878906 -52.171875 24.890625 -50.550781 24.921875 -48.53125 C 24.890625 -46.914062 25.523438 -45.546875 26.828125 -44.421875 C 28.140625 -43.304688 30.367188 -42.414062 33.515625 -41.75 L 45.75 -39.28125 C 58.757812 -36.601562 65.273438 -30.492188 65.296875 -20.953125 C 65.296875 -16.523438 64 -12.632812 61.40625 -9.28125 C 58.8125 -5.9375 55.253906 -3.332031 50.734375 -1.46875 C 46.210938 0.394531 41.03125 1.328125 35.1875 1.328125 C 26.226562 1.328125 19.09375 -0.539062 13.78125 -4.28125 C 8.46875 -8.03125 5.367188 -13.132812 4.484375 -19.59375 L 22.9375 -20.5625 C 23.53125 -17.800781 24.890625 -15.71875 27.015625 -14.3125 C 29.140625 -12.90625 31.878906 -12.203125 35.234375 -12.203125 C 38.515625 -12.203125 41.160156 -12.847656 43.171875 -14.140625 C 45.179688 -15.429688 46.203125 -17.070312 46.234375 -19.0625 C 46.148438 -22.414062 43.257812 -24.660156 37.5625 -25.796875 L 25.84375 -28.140625 C 12.75 -30.753906 6.234375 -37.195312 6.296875 -47.46875 C 6.265625 -53.988281 8.867188 -59.125 14.109375 -62.875 C 19.347656 -66.632812 26.300781 -68.515625 34.96875 -68.515625 C 43.507812 -68.515625 50.238281 -66.707031 55.15625 -63.09375 C 60.070312 -59.488281 62.941406 -54.570312 63.765625 -48.34375 Z M 63.765625 -48.34375 "/></g></g></g><g fill="#000000" fill-opacity="1"><g transform="translate(263.243199, 297.723888)"><g><path d="M 26.25 -39.109375 L 26.25 0 L 7.484375 0 L 7.484375 -90.1875 L 25.71875 -90.1875 L 25.71875 -55.703125 L 26.515625 -55.703125 C 28.066406 -59.691406 30.535156 -62.820312 33.921875 -65.09375 C 37.316406 -67.375 41.582031 -68.515625 46.71875 -68.515625 C 53.757812 -68.515625 59.421875 -66.253906 63.703125 -61.734375 C 67.992188 -57.210938 70.128906 -50.988281 70.109375 -43.0625 L 70.109375 0 L 51.34375 0 L 51.34375 -39.71875 C 51.375 -43.882812 50.320312 -47.125 48.1875 -49.4375 C 46.0625 -51.757812 43.09375 -52.921875 39.28125 -52.921875 C 35.457031 -52.921875 32.332031 -51.707031 29.90625 -49.28125 C 27.488281 -46.863281 26.269531 -43.472656 26.25 -39.109375 Z M 26.25 -39.109375 "/></g></g></g></svg>