<svg xmlns="http://www.w3.org/2000/svg" xmlns:xlink="http://www.w3.org/1999/xlink" width="500" zoomAndPan="magnify" viewBox="0 0 375 374.999991" height="500" preserveAspectRatio="xMidYMid meet" version="1.0"><defs><g/><clipPath id="bb035e87a7"><path d="M 21.75 21.75 L 353.25 21.75 L 353.25 353.25 L 21.75 353.25 Z M 21.75 21.75 " clip-rule="nonzero"/></clipPath><clipPath id="6c233a2c31"><path d="M 187.5 21.75 C 95.957031 21.75 21.75 95.957031 21.75 187.5 C 21.75 279.042969 95.957031 353.25 187.5 353.25 C 279.042969 353.25 353.25 279.042969 353.25 187.5 C 353.25 95.957031 279.042969 21.75 187.5 21.75 Z M 187.5 21.75 " clip-rule="nonzero"/></clipPath><clipPath id="d0824bf893"><path d="M 0.578125 153.039062 L 375 153.039062 L 375 263.832031 L 0.578125 263.832031 Z M 0.578125 153.039062 " clip-rule="nonzero"/></clipPath><clipPath id="61f44f3d7c"><path d="M 264 271 L 288 271 L 288 297 L 264 297 Z M 264 271 " clip-rule="nonzero"/></clipPath><clipPath id="ece079728e"><path d="M 278.304688 263.832031 L 297.292969 279.714844 L 283.539062 296.15625 L 264.550781 280.273438 Z M 278.304688 263.832031 " clip-rule="nonzero"/></clipPath><clipPath id="458add096a"><path d="M 264.550781 280.273438 L 287.796875 271.773438 L 283.539062 296.15625 Z M 264.550781 280.273438 " clip-rule="nonzero"/></clipPath><clipPath id="d032779541"><path d="M 243 58 L 260 58 L 260 75 L 243 75 Z M 243 58 " clip-rule="nonzero"/></clipPath><clipPath id="0b495fdf82"><path d="M 237.46875 64.167969 L 249.464844 52.167969 L 259.859375 62.558594 L 247.859375 74.558594 Z M 237.46875 64.167969 " clip-rule="nonzero"/></clipPath><clipPath id="6ebdc9b7fa"><path d="M 247.859375 74.558594 L 243.464844 58.167969 L 259.859375 62.558594 Z M 247.859375 74.558594 " clip-rule="nonzero"/></clipPath><clipPath id="3748d40d03"><path d="M 175.453125 315.636719 L 188.597656 315.636719 L 188.597656 328.78125 L 175.453125 328.78125 Z M 175.453125 315.636719 " clip-rule="nonzero"/></clipPath><clipPath id="6728fa4b5b"><path d="M 182.027344 315.636719 C 185.65625 315.636719 188.597656 318.578125 188.597656 322.207031 C 188.597656 325.839844 185.65625 328.78125 182.027344 328.78125 C 178.394531 328.78125 175.453125 325.839844 175.453125 322.207031 C 175.453125 318.578125 178.394531 315.636719 182.027344 315.636719 Z M 182.027344 315.636719 " clip-rule="nonzero"/></clipPath><clipPath id="75f29a921c"><path d="M 100 58 L 136 58 L 136 84 L 100 84 Z M 100 58 " clip-rule="nonzero"/></clipPath><clipPath id="e80e5cee9b"><path d="M 95.113281 70.222656 L 130.109375 54.339844 L 136.839844 69.171875 L 101.84375 85.054688 Z M 95.113281 70.222656 " clip-rule="nonzero"/></clipPath><clipPath id="36d12d6471"><path d="M 105.445312 83.417969 L 100.855469 82.875 L 102.675781 67.59375 L 111.382812 71.464844 L 112.355469 62.398438 L 120.453125 67.074219 L 122.082031 58.238281 L 135.03125 65.246094 L 132.832031 69.320312 L 125.476562 65.34375 L 123.824219 74.359375 L 116.207031 69.953125 L 115.296875 78.269531 L 106.539062 74.382812 Z M 105.445312 83.417969 " clip-rule="nonzero"/></clipPath><clipPath id="7b81e7991c"><path d="M 77 272 L 104 272 L 104 287 L 77 287 Z M 77 272 " clip-rule="nonzero"/></clipPath><clipPath id="db9acd58df"><path d="M 76.257812 275.582031 L 102.410156 271.394531 L 104.183594 282.480469 L 78.03125 286.664062 Z M 76.257812 275.582031 " clip-rule="nonzero"/></clipPath><clipPath id="68fd99c65d"><path d="M 80.726562 286.234375 L 77.773438 285.035156 L 81.761719 275.210938 L 86.847656 279.367188 L 89.144531 273.519531 L 93.675781 278.101562 L 96.363281 272.523438 L 103.699219 279.539062 L 101.492188 281.847656 L 97.328125 277.867188 L 94.589844 283.558594 L 90.328125 279.242188 L 88.210938 284.605469 L 83.097656 280.425781 Z M 80.726562 286.234375 " clip-rule="nonzero"/></clipPath><clipPath id="830984e1a0"><path d="M 64.648438 86 L 312.898438 86 L 312.898438 153.308594 L 64.648438 153.308594 Z M 64.648438 86 " clip-rule="nonzero"/></clipPath><clipPath id="65eb3900d8"><path d="M 184 74.558594 L 186 74.558594 L 186 78 L 184 78 Z M 184 74.558594 " clip-rule="nonzero"/></clipPath></defs><g clip-path="url(#bb035e87a7)"><g clip-path="url(#6c233a2c31)"><path fill="#ffffff" d="M 21.75 21.75 L 353.25 21.75 L 353.25 353.25 L 21.75 353.25 Z M 21.75 21.75 " fill-opacity="1" fill-rule="nonzero"/><path stroke-linecap="butt" transform="matrix(0.75, 0, 0, 0.75, 21.749999, 21.749995)" fill="none" stroke-linejoin="miter" d="M 221.000001 0.00000670433 C 98.942709 0.00000670433 0.000000704333 98.942715 0.000000704333 221.000007 C 0.000000704333 343.057299 98.942709 442.000007 221.000001 442.000007 C 343.057293 442.000007 442.000001 343.057299 442.000001 221.000007 C 442.000001 98.942715 343.057293 0.00000670433 221.000001 0.00000670433 Z M 221.000001 0.00000670433 " stroke="#737373" stroke-width="24" stroke-opacity="1" stroke-miterlimit="4"/></g></g><g clip-path="url(#d0824bf893)"><path fill="#ffd7d9" d="M 0.578125 153.039062 L 374.929688 153.039062 L 374.929688 263.832031 L 0.578125 263.832031 Z M 0.578125 153.039062 " fill-opacity="1" fill-rule="nonzero"/></g><g fill="#3f3f3f" fill-opacity="1"><g transform="translate(127.693484, 298.864759)"><g><path d="M 10.84375 0 L 1.921875 0 L 1.921875 -15 L 3.96875 -15 L 3.96875 -1.828125 L 10.84375 -1.828125 Z M 10.84375 0 "/></g></g></g><g fill="#3f3f3f" fill-opacity="1"><g transform="translate(138.649906, 298.864759)"><g><path d="M 1.078125 -7.53125 C 1.078125 -8.625 1.234375 -9.640625 1.546875 -10.578125 C 1.867188 -11.523438 2.332031 -12.34375 2.9375 -13.03125 C 3.550781 -13.726562 4.289062 -14.273438 5.15625 -14.671875 C 6.03125 -15.066406 7.023438 -15.265625 8.140625 -15.265625 C 9.242188 -15.265625 10.234375 -15.0625 11.109375 -14.65625 C 11.992188 -14.25 12.738281 -13.691406 13.34375 -12.984375 C 13.945312 -12.285156 14.410156 -11.46875 14.734375 -10.53125 C 15.066406 -9.59375 15.234375 -8.59375 15.234375 -7.53125 C 15.234375 -6.457031 15.070312 -5.445312 14.75 -4.5 C 14.4375 -3.5625 13.972656 -2.738281 13.359375 -2.03125 C 12.742188 -1.320312 12 -0.765625 11.125 -0.359375 C 10.25 0.046875 9.253906 0.25 8.140625 0.25 C 7.023438 0.25 6.03125 0.046875 5.15625 -0.359375 C 4.289062 -0.765625 3.550781 -1.320312 2.9375 -2.03125 C 2.332031 -2.738281 1.867188 -3.5625 1.546875 -4.5 C 1.234375 -5.445312 1.078125 -6.457031 1.078125 -7.53125 Z M 3.15625 -7.53125 C 3.15625 -6.75 3.265625 -5.992188 3.484375 -5.265625 C 3.703125 -4.546875 4.023438 -3.90625 4.453125 -3.34375 C 4.890625 -2.789062 5.414062 -2.34375 6.03125 -2 C 6.65625 -1.664062 7.359375 -1.5 8.140625 -1.5 C 8.972656 -1.5 9.695312 -1.648438 10.3125 -1.953125 C 10.9375 -2.265625 11.457031 -2.6875 11.875 -3.21875 C 12.300781 -3.757812 12.617188 -4.394531 12.828125 -5.125 C 13.046875 -5.863281 13.15625 -6.664062 13.15625 -7.53125 C 13.15625 -8.300781 13.039062 -9.039062 12.8125 -9.75 C 12.59375 -10.46875 12.265625 -11.101562 11.828125 -11.65625 C 11.398438 -12.21875 10.875 -12.664062 10.25 -13 C 9.632812 -13.332031 8.929688 -13.5 8.140625 -13.5 C 7.359375 -13.5 6.65625 -13.34375 6.03125 -13.03125 C 5.414062 -12.726562 4.890625 -12.304688 4.453125 -11.765625 C 4.023438 -11.234375 3.703125 -10.601562 3.484375 -9.875 C 3.265625 -9.15625 3.15625 -8.375 3.15625 -7.53125 Z M 3.15625 -7.53125 "/></g></g></g><g fill="#3f3f3f" fill-opacity="1"><g transform="translate(154.966615, 298.864759)"><g><path d="M 3.15625 -7.53125 C 3.15625 -6.625 3.269531 -5.800781 3.5 -5.0625 C 3.738281 -4.332031 4.066406 -3.703125 4.484375 -3.171875 C 4.910156 -2.640625 5.414062 -2.226562 6 -1.9375 C 6.582031 -1.65625 7.226562 -1.515625 7.9375 -1.515625 C 8.632812 -1.515625 9.238281 -1.597656 9.75 -1.765625 C 10.269531 -1.929688 10.769531 -2.15625 11.25 -2.4375 L 11.875 -0.75 C 11.34375 -0.46875 10.738281 -0.226562 10.0625 -0.03125 C 9.382812 0.15625 8.597656 0.25 7.703125 0.25 C 6.710938 0.25 5.8125 0.0703125 5 -0.28125 C 4.195312 -0.632812 3.5 -1.144531 2.90625 -1.8125 C 2.320312 -2.476562 1.867188 -3.285156 1.546875 -4.234375 C 1.234375 -5.179688 1.078125 -6.25 1.078125 -7.4375 C 1.078125 -8.582031 1.234375 -9.632812 1.546875 -10.59375 C 1.867188 -11.550781 2.332031 -12.375 2.9375 -13.0625 C 3.539062 -13.757812 4.265625 -14.300781 5.109375 -14.6875 C 5.960938 -15.070312 6.910156 -15.265625 7.953125 -15.265625 C 8.679688 -15.265625 9.332031 -15.195312 9.90625 -15.0625 C 10.488281 -14.925781 11.039062 -14.734375 11.5625 -14.484375 L 10.9375 -12.78125 C 10.488281 -12.988281 10.03125 -13.15625 9.5625 -13.28125 C 9.101562 -13.414062 8.5625 -13.484375 7.9375 -13.484375 C 7.25 -13.484375 6.609375 -13.347656 6.015625 -13.078125 C 5.429688 -12.816406 4.925781 -12.425781 4.5 -11.90625 C 4.070312 -11.394531 3.738281 -10.769531 3.5 -10.03125 C 3.269531 -9.300781 3.15625 -8.46875 3.15625 -7.53125 Z M 3.15625 -7.53125 "/></g></g></g><g fill="#3f3f3f" fill-opacity="1"><g transform="translate(167.702655, 298.864759)"><g><path d="M 0.21875 -0.53125 L 6.09375 -15 L 8.3125 -15 L 14.109375 -0.53125 L 12.234375 0.21875 L 10.5625 -4.078125 L 3.625 -4.078125 L 1.953125 0.171875 Z M 4.265625 -5.78125 L 9.90625 -5.78125 L 7.09375 -12.984375 Z M 4.265625 -5.78125 "/></g></g></g><g fill="#3f3f3f" fill-opacity="1"><g transform="translate(182.025338, 298.864759)"><g><path d="M 10.84375 0 L 1.921875 0 L 1.921875 -15 L 3.96875 -15 L 3.96875 -1.828125 L 10.84375 -1.828125 Z M 10.84375 0 "/></g></g></g><g fill="#3f3f3f" fill-opacity="1"><g transform="translate(192.981761, 298.864759)"><g/></g></g><g fill="#3f3f3f" fill-opacity="1"><g transform="translate(199.414104, 298.864759)"><g><path d="M 1.921875 -15 L 10.9375 -15 L 10.9375 -13.25 L 3.96875 -13.25 L 3.96875 -8.6875 L 9.96875 -8.6875 L 9.96875 -6.96875 L 3.96875 -6.96875 L 3.96875 -1.765625 L 10.9375 -1.765625 L 10.9375 0 L 1.921875 0 Z M 1.921875 -15 "/></g></g></g><g fill="#3f3f3f" fill-opacity="1"><g transform="translate(211.313937, 298.864759)"><g><path d="M 0.21875 -0.53125 L 6.09375 -15 L 8.3125 -15 L 14.109375 -0.53125 L 12.234375 0.21875 L 10.5625 -4.078125 L 3.625 -4.078125 L 1.953125 0.171875 Z M 4.265625 -5.78125 L 9.90625 -5.78125 L 7.09375 -12.984375 Z M 4.265625 -5.78125 "/></g></g></g><g fill="#3f3f3f" fill-opacity="1"><g transform="translate(225.63662, 298.864759)"><g><path d="M 0.21875 -15 L 11.46875 -15 L 11.46875 -13.203125 L 6.859375 -13.203125 L 6.859375 0 L 4.828125 0 L 4.828125 -13.203125 L 0.21875 -13.203125 Z M 0.21875 -15 "/></g></g></g><g fill="#3f3f3f" fill-opacity="1"><g transform="translate(237.322037, 298.864759)"><g><path d="M 1.671875 -2.984375 C 2.179688 -2.554688 2.757812 -2.203125 3.40625 -1.921875 C 4.050781 -1.648438 4.800781 -1.515625 5.65625 -1.515625 C 6.6875 -1.515625 7.5 -1.726562 8.09375 -2.15625 C 8.695312 -2.59375 9 -3.175781 9 -3.90625 C 9 -4.207031 8.957031 -4.484375 8.875 -4.734375 C 8.789062 -4.992188 8.625 -5.238281 8.375 -5.46875 C 8.125 -5.707031 7.769531 -5.941406 7.3125 -6.171875 C 6.863281 -6.410156 6.285156 -6.671875 5.578125 -6.953125 C 4.804688 -7.242188 4.148438 -7.535156 3.609375 -7.828125 C 3.078125 -8.128906 2.644531 -8.453125 2.3125 -8.796875 C 1.988281 -9.148438 1.753906 -9.535156 1.609375 -9.953125 C 1.460938 -10.378906 1.390625 -10.863281 1.390625 -11.40625 C 1.390625 -11.9375 1.5 -12.4375 1.71875 -12.90625 C 1.945312 -13.375 2.273438 -13.78125 2.703125 -14.125 C 3.140625 -14.476562 3.675781 -14.753906 4.3125 -14.953125 C 4.957031 -15.160156 5.6875 -15.265625 6.5 -15.265625 C 7.382812 -15.265625 8.175781 -15.175781 8.875 -15 C 9.570312 -14.820312 10.265625 -14.566406 10.953125 -14.234375 L 10.203125 -12.5 C 9.710938 -12.78125 9.144531 -13.015625 8.5 -13.203125 C 7.851562 -13.398438 7.171875 -13.5 6.453125 -13.5 C 5.503906 -13.5 4.757812 -13.316406 4.21875 -12.953125 C 3.675781 -12.585938 3.40625 -12.109375 3.40625 -11.515625 C 3.40625 -11.222656 3.441406 -10.96875 3.515625 -10.75 C 3.597656 -10.53125 3.757812 -10.316406 4 -10.109375 C 4.238281 -9.898438 4.566406 -9.6875 4.984375 -9.46875 C 5.398438 -9.257812 5.960938 -9.023438 6.671875 -8.765625 C 7.492188 -8.453125 8.191406 -8.128906 8.765625 -7.796875 C 9.335938 -7.472656 9.796875 -7.125 10.140625 -6.75 C 10.484375 -6.382812 10.726562 -5.984375 10.875 -5.546875 C 11.03125 -5.117188 11.109375 -4.648438 11.109375 -4.140625 C 11.109375 -3.441406 10.972656 -2.816406 10.703125 -2.265625 C 10.429688 -1.722656 10.054688 -1.265625 9.578125 -0.890625 C 9.097656 -0.515625 8.519531 -0.226562 7.84375 -0.03125 C 7.175781 0.15625 6.445312 0.25 5.65625 0.25 C 4.613281 0.25 3.660156 0.113281 2.796875 -0.15625 C 1.941406 -0.4375 1.222656 -0.804688 0.640625 -1.265625 Z M 1.671875 -2.984375 "/></g></g></g><g clip-path="url(#61f44f3d7c)"><g clip-path="url(#ece079728e)"><g clip-path="url(#458add096a)"><path fill="#ffd7d9" d="M 278.304688 263.832031 L 297.292969 279.714844 L 283.539062 296.15625 L 264.550781 280.273438 Z M 278.304688 263.832031 " fill-opacity="1" fill-rule="nonzero"/></g></g></g><g clip-path="url(#d032779541)"><g clip-path="url(#0b495fdf82)"><g clip-path="url(#6ebdc9b7fa)"><path fill="#a6a6a6" d="M 237.46875 64.167969 L 249.464844 52.167969 L 259.859375 62.558594 L 247.859375 74.558594 Z M 237.46875 64.167969 " fill-opacity="1" fill-rule="nonzero"/></g></g></g><g clip-path="url(#3748d40d03)"><g clip-path="url(#6728fa4b5b)"><path fill="#ffd7d9" d="M 175.453125 315.636719 L 188.597656 315.636719 L 188.597656 328.78125 L 175.453125 328.78125 Z M 175.453125 315.636719 " fill-opacity="1" fill-rule="nonzero"/></g></g><g clip-path="url(#75f29a921c)"><g clip-path="url(#e80e5cee9b)"><g clip-path="url(#36d12d6471)"><path fill="#ffd7d9" d="M 95.113281 70.222656 L 130.109375 54.339844 L 136.839844 69.171875 L 101.84375 85.054688 Z M 95.113281 70.222656 " fill-opacity="1" fill-rule="nonzero"/></g></g></g><g clip-path="url(#7b81e7991c)"><g clip-path="url(#db9acd58df)"><g clip-path="url(#68fd99c65d)"><path fill="#737373" d="M 76.257812 275.582031 L 102.410156 271.394531 L 104.183594 282.480469 L 78.03125 286.664062 Z M 76.257812 275.582031 " fill-opacity="1" fill-rule="nonzero"/></g></g></g><path fill="#3f3f3f" d="M 252.714844 123.535156 L 253.828125 123.535156 L 253.828125 149.128906 L 252.714844 149.128906 Z M 252.714844 123.535156 " fill-opacity="1" fill-rule="nonzero"/><path fill="#3f3f3f" d="M 261.617188 144.679688 L 262.730469 144.679688 L 262.730469 149.128906 L 261.617188 149.128906 Z M 261.617188 144.679688 " fill-opacity="1" fill-rule="nonzero"/><path fill="#3f3f3f" d="M 252.714844 110.179688 L 253.828125 110.179688 L 253.828125 114.632812 L 252.714844 114.632812 Z M 252.714844 110.179688 " fill-opacity="1" fill-rule="nonzero"/><path fill="#3f3f3f" d="M 252.714844 116.859375 L 253.828125 116.859375 L 253.828125 121.308594 L 252.714844 121.308594 Z M 252.714844 116.859375 " fill-opacity="1" fill-rule="nonzero"/><path fill="#3f3f3f" d="M 247.707031 91.820312 L 249.933594 91.820312 L 249.933594 92.933594 L 247.707031 92.933594 Z M 247.707031 91.820312 " fill-opacity="1" fill-rule="nonzero"/><path fill="#3f3f3f" d="M 247.707031 96.269531 L 249.933594 96.269531 L 249.933594 97.382812 L 247.707031 97.382812 Z M 247.707031 96.269531 " fill-opacity="1" fill-rule="nonzero"/><path fill="#3f3f3f" d="M 243.253906 91.820312 L 245.480469 91.820312 L 245.480469 92.933594 L 243.253906 92.933594 Z M 243.253906 91.820312 " fill-opacity="1" fill-rule="nonzero"/><path fill="#3f3f3f" d="M 243.253906 96.269531 L 245.480469 96.269531 L 245.480469 97.382812 L 243.253906 97.382812 Z M 243.253906 96.269531 " fill-opacity="1" fill-rule="nonzero"/><path fill="#3f3f3f" d="M 238.804688 91.820312 L 241.03125 91.820312 L 241.03125 92.933594 L 238.804688 92.933594 Z M 238.804688 91.820312 " fill-opacity="1" fill-rule="nonzero"/><path fill="#3f3f3f" d="M 238.804688 96.269531 L 241.03125 96.269531 L 241.03125 97.382812 L 238.804688 97.382812 Z M 238.804688 96.269531 " fill-opacity="1" fill-rule="nonzero"/><path fill="#3f3f3f" d="M 234.351562 91.820312 L 236.578125 91.820312 L 236.578125 92.933594 L 234.351562 92.933594 Z M 234.351562 91.820312 " fill-opacity="1" fill-rule="nonzero"/><path fill="#3f3f3f" d="M 234.351562 96.269531 L 236.578125 96.269531 L 236.578125 97.382812 L 234.351562 97.382812 Z M 234.351562 96.269531 " fill-opacity="1" fill-rule="nonzero"/><path fill="#3f3f3f" d="M 238.804688 100.722656 L 241.03125 100.722656 L 241.03125 101.835938 L 238.804688 101.835938 Z M 238.804688 100.722656 " fill-opacity="1" fill-rule="nonzero"/><path fill="#3f3f3f" d="M 238.804688 105.175781 L 241.03125 105.175781 L 241.03125 106.285156 L 238.804688 106.285156 Z M 238.804688 105.175781 " fill-opacity="1" fill-rule="nonzero"/><path fill="#3f3f3f" d="M 234.351562 100.722656 L 236.578125 100.722656 L 236.578125 101.835938 L 234.351562 101.835938 Z M 234.351562 100.722656 " fill-opacity="1" fill-rule="nonzero"/><path fill="#3f3f3f" d="M 234.351562 105.175781 L 236.578125 105.175781 L 236.578125 106.285156 L 234.351562 106.285156 Z M 234.351562 105.175781 " fill-opacity="1" fill-rule="nonzero"/><path fill="#3f3f3f" d="M 238.804688 109.625 L 241.03125 109.625 L 241.03125 110.738281 L 238.804688 110.738281 Z M 238.804688 109.625 " fill-opacity="1" fill-rule="nonzero"/><path fill="#3f3f3f" d="M 243.253906 100.722656 L 245.480469 100.722656 L 245.480469 101.835938 L 243.253906 101.835938 Z M 243.253906 100.722656 " fill-opacity="1" fill-rule="nonzero"/><path fill="#3f3f3f" d="M 243.253906 105.175781 L 245.480469 105.175781 L 245.480469 106.285156 L 243.253906 106.285156 Z M 243.253906 105.175781 " fill-opacity="1" fill-rule="nonzero"/><path fill="#3f3f3f" d="M 243.253906 109.625 L 245.480469 109.625 L 245.480469 110.738281 L 243.253906 110.738281 Z M 243.253906 109.625 " fill-opacity="1" fill-rule="nonzero"/><path fill="#3f3f3f" d="M 234.351562 109.625 L 236.578125 109.625 L 236.578125 110.738281 L 234.351562 110.738281 Z M 234.351562 109.625 " fill-opacity="1" fill-rule="nonzero"/><path fill="#3f3f3f" d="M 297.78125 148.574219 L 306.683594 148.574219 C 306.992188 148.574219 307.242188 148.324219 307.242188 148.015625 L 307.242188 110.179688 C 307.242188 109.875 306.992188 109.625 306.683594 109.625 L 297.78125 109.625 C 297.476562 109.625 297.226562 109.875 297.226562 110.179688 L 297.226562 148.015625 C 297.226562 148.324219 297.476562 148.574219 297.78125 148.574219 Z M 298.339844 147.460938 L 298.339844 140.785156 L 306.128906 140.785156 L 306.128906 147.460938 Z M 306.128906 125.203125 L 306.128906 131.882812 L 298.339844 131.882812 L 298.339844 125.203125 Z M 298.339844 124.089844 L 298.339844 117.414062 L 306.128906 117.414062 L 306.128906 124.089844 Z M 306.128906 132.992188 L 306.128906 139.671875 L 298.339844 139.671875 L 298.339844 132.992188 Z M 306.128906 110.738281 L 306.128906 116.300781 L 298.339844 116.300781 L 298.339844 110.738281 Z M 306.128906 110.738281 " fill-opacity="1" fill-rule="nonzero"/><path fill="#3f3f3f" d="M 283.871094 120.195312 L 284.984375 120.195312 L 284.984375 123.535156 L 283.871094 123.535156 Z M 283.871094 120.195312 " fill-opacity="1" fill-rule="nonzero"/><path fill="#3f3f3f" d="M 279.421875 120.195312 L 280.535156 120.195312 L 280.535156 123.535156 L 279.421875 123.535156 Z M 279.421875 120.195312 " fill-opacity="1" fill-rule="nonzero"/><path fill="#3f3f3f" d="M 283.871094 125.761719 L 284.984375 125.761719 L 284.984375 129.097656 L 283.871094 129.097656 Z M 283.871094 125.761719 " fill-opacity="1" fill-rule="nonzero"/><path fill="#3f3f3f" d="M 279.421875 125.761719 L 280.535156 125.761719 L 280.535156 129.097656 L 279.421875 129.097656 Z M 279.421875 125.761719 " fill-opacity="1" fill-rule="nonzero"/><path fill="#3f3f3f" d="M 283.871094 131.324219 L 284.984375 131.324219 L 284.984375 134.664062 L 283.871094 134.664062 Z M 283.871094 131.324219 " fill-opacity="1" fill-rule="nonzero"/><path fill="#3f3f3f" d="M 279.421875 131.324219 L 280.535156 131.324219 L 280.535156 134.664062 L 279.421875 134.664062 Z M 279.421875 131.324219 " fill-opacity="1" fill-rule="nonzero"/><path fill="#3f3f3f" d="M 279.421875 136.890625 L 280.535156 136.890625 L 280.535156 140.226562 L 279.421875 140.226562 Z M 279.421875 136.890625 " fill-opacity="1" fill-rule="nonzero"/><path fill="#3f3f3f" d="M 274.96875 120.195312 L 276.082031 120.195312 L 276.082031 123.535156 L 274.96875 123.535156 Z M 274.96875 120.195312 " fill-opacity="1" fill-rule="nonzero"/><path fill="#3f3f3f" d="M 274.96875 125.761719 L 276.082031 125.761719 L 276.082031 129.097656 L 274.96875 129.097656 Z M 274.96875 125.761719 " fill-opacity="1" fill-rule="nonzero"/><path fill="#3f3f3f" d="M 274.96875 131.324219 L 276.082031 131.324219 L 276.082031 134.664062 L 274.96875 134.664062 Z M 274.96875 131.324219 " fill-opacity="1" fill-rule="nonzero"/><path fill="#3f3f3f" d="M 274.96875 136.890625 L 276.082031 136.890625 L 276.082031 140.226562 L 274.96875 140.226562 Z M 274.96875 136.890625 " fill-opacity="1" fill-rule="nonzero"/><path fill="#3f3f3f" d="M 270.519531 120.195312 L 271.632812 120.195312 L 271.632812 123.535156 L 270.519531 123.535156 Z M 270.519531 120.195312 " fill-opacity="1" fill-rule="nonzero"/><path fill="#3f3f3f" d="M 270.519531 125.761719 L 271.632812 125.761719 L 271.632812 129.097656 L 270.519531 129.097656 Z M 270.519531 125.761719 " fill-opacity="1" fill-rule="nonzero"/><path fill="#3f3f3f" d="M 270.519531 131.324219 L 271.632812 131.324219 L 271.632812 134.664062 L 270.519531 134.664062 Z M 270.519531 131.324219 " fill-opacity="1" fill-rule="nonzero"/><path fill="#3f3f3f" d="M 270.519531 136.890625 L 271.632812 136.890625 L 271.632812 140.226562 L 270.519531 140.226562 Z M 270.519531 136.890625 " fill-opacity="1" fill-rule="nonzero"/><path fill="#3f3f3f" d="M 279.421875 142.453125 L 280.535156 142.453125 L 280.535156 145.792969 L 279.421875 145.792969 Z M 279.421875 142.453125 " fill-opacity="1" fill-rule="nonzero"/><path fill="#3f3f3f" d="M 274.96875 142.453125 L 276.082031 142.453125 L 276.082031 145.792969 L 274.96875 145.792969 Z M 274.96875 142.453125 " fill-opacity="1" fill-rule="nonzero"/><path fill="#3f3f3f" d="M 270.519531 142.453125 L 271.632812 142.453125 L 271.632812 145.792969 L 270.519531 145.792969 Z M 270.519531 142.453125 " fill-opacity="1" fill-rule="nonzero"/><path fill="#3f3f3f" d="M 288.324219 125.761719 L 289.4375 125.761719 L 289.4375 129.097656 L 288.324219 129.097656 Z M 288.324219 125.761719 " fill-opacity="1" fill-rule="nonzero"/><path fill="#3f3f3f" d="M 288.324219 120.195312 L 289.4375 120.195312 L 289.4375 123.535156 L 288.324219 123.535156 Z M 288.324219 120.195312 " fill-opacity="1" fill-rule="nonzero"/><path fill="#3f3f3f" d="M 288.324219 131.324219 L 289.4375 131.324219 L 289.4375 134.664062 L 288.324219 134.664062 Z M 288.324219 131.324219 " fill-opacity="1" fill-rule="nonzero"/><path fill="#3f3f3f" d="M 128.078125 117.972656 L 129.191406 117.972656 L 129.191406 122.421875 L 128.078125 122.421875 Z M 128.078125 117.972656 " fill-opacity="1" fill-rule="nonzero"/><path fill="#3f3f3f" d="M 132.53125 117.972656 L 133.644531 117.972656 L 133.644531 122.421875 L 132.53125 122.421875 Z M 132.53125 117.972656 " fill-opacity="1" fill-rule="nonzero"/><path fill="#3f3f3f" d="M 141.433594 124.648438 L 142.546875 124.648438 L 142.546875 129.097656 L 141.433594 129.097656 Z M 141.433594 124.648438 " fill-opacity="1" fill-rule="nonzero"/><path fill="#3f3f3f" d="M 136.980469 124.648438 L 138.09375 124.648438 L 138.09375 129.097656 L 136.980469 129.097656 Z M 136.980469 124.648438 " fill-opacity="1" fill-rule="nonzero"/><path fill="#3f3f3f" d="M 128.078125 124.648438 L 129.191406 124.648438 L 129.191406 129.097656 L 128.078125 129.097656 Z M 128.078125 124.648438 " fill-opacity="1" fill-rule="nonzero"/><path fill="#3f3f3f" d="M 141.433594 131.324219 L 142.546875 131.324219 L 142.546875 135.777344 L 141.433594 135.777344 Z M 141.433594 131.324219 " fill-opacity="1" fill-rule="nonzero"/><path fill="#3f3f3f" d="M 136.980469 131.324219 L 138.09375 131.324219 L 138.09375 135.777344 L 136.980469 135.777344 Z M 136.980469 131.324219 " fill-opacity="1" fill-rule="nonzero"/><path fill="#3f3f3f" d="M 128.078125 131.324219 L 129.191406 131.324219 L 129.191406 135.777344 L 128.078125 135.777344 Z M 128.078125 131.324219 " fill-opacity="1" fill-rule="nonzero"/><path fill="#3f3f3f" d="M 141.433594 138 L 142.546875 138 L 142.546875 142.453125 L 141.433594 142.453125 Z M 141.433594 138 " fill-opacity="1" fill-rule="nonzero"/><path fill="#3f3f3f" d="M 136.980469 138 L 138.09375 138 L 138.09375 142.453125 L 136.980469 142.453125 Z M 136.980469 138 " fill-opacity="1" fill-rule="nonzero"/><path fill="#3f3f3f" d="M 74.664062 144.679688 L 75.777344 144.679688 L 75.777344 149.128906 L 74.664062 149.128906 Z M 74.664062 144.679688 " fill-opacity="1" fill-rule="nonzero"/><path fill="#3f3f3f" d="M 70.214844 144.679688 L 71.328125 144.679688 L 71.328125 149.128906 L 70.214844 149.128906 Z M 70.214844 144.679688 " fill-opacity="1" fill-rule="nonzero"/><path fill="#3f3f3f" d="M 74.664062 138 L 75.777344 138 L 75.777344 142.453125 L 74.664062 142.453125 Z M 74.664062 138 " fill-opacity="1" fill-rule="nonzero"/><path fill="#3f3f3f" d="M 70.214844 138 L 71.328125 138 L 71.328125 142.453125 L 70.214844 142.453125 Z M 70.214844 138 " fill-opacity="1" fill-rule="nonzero"/><path fill="#3f3f3f" d="M 128.078125 138 L 129.191406 138 L 129.191406 142.453125 L 128.078125 142.453125 Z M 128.078125 138 " fill-opacity="1" fill-rule="nonzero"/><path fill="#3f3f3f" d="M 132.53125 124.648438 L 133.644531 124.648438 L 133.644531 129.097656 L 132.53125 129.097656 Z M 132.53125 124.648438 " fill-opacity="1" fill-rule="nonzero"/><path fill="#3f3f3f" d="M 132.53125 131.324219 L 133.644531 131.324219 L 133.644531 135.777344 L 132.53125 135.777344 Z M 132.53125 131.324219 " fill-opacity="1" fill-rule="nonzero"/><path fill="#3f3f3f" d="M 132.53125 138 L 133.644531 138 L 133.644531 142.453125 L 132.53125 142.453125 Z M 132.53125 138 " fill-opacity="1" fill-rule="nonzero"/><g clip-path="url(#830984e1a0)"><path fill="#3f3f3f" d="M 311.691406 151.910156 L 311.691406 105.730469 C 311.691406 105.425781 311.441406 105.175781 311.136719 105.175781 L 309.46875 105.175781 L 309.46875 101.277344 C 309.46875 100.972656 309.21875 100.722656 308.910156 100.722656 L 307.242188 100.722656 L 307.242188 96.828125 C 307.242188 96.523438 306.992188 96.269531 306.683594 96.269531 L 302.789062 96.269531 L 302.789062 91.820312 C 302.789062 91.515625 302.539062 91.265625 302.234375 91.265625 C 301.929688 91.265625 301.675781 91.515625 301.675781 91.820312 L 301.675781 96.269531 L 297.78125 96.269531 C 297.476562 96.269531 297.226562 96.523438 297.226562 96.828125 L 297.226562 100.722656 L 295.558594 100.722656 C 295.25 100.722656 295 100.972656 295 101.277344 L 295 105.175781 L 293.332031 105.175781 C 293.027344 105.175781 292.773438 105.425781 292.773438 105.730469 L 292.773438 116.300781 L 281.324219 116.300781 L 274.195312 110.855469 C 274.011719 110.714844 273.761719 110.699219 273.566406 110.820312 L 267.179688 114.75 L 267.179688 102.390625 C 267.179688 102.230469 267.113281 102.082031 266.992188 101.972656 C 266.875 101.867188 266.714844 101.824219 266.558594 101.839844 L 254.941406 103.296875 L 254.941406 90.152344 C 254.941406 88.617188 253.691406 87.367188 252.15625 87.367188 L 228.789062 87.367188 C 227.253906 87.367188 226.007812 88.617188 226.007812 90.152344 L 226.007812 115.300781 L 212.652344 118.382812 L 212.652344 96.828125 C 212.652344 96.523438 212.402344 96.269531 212.097656 96.269531 L 209.316406 96.269531 L 209.316406 92.375 C 209.316406 92.070312 209.0625 91.820312 208.757812 91.820312 L 205.976562 91.820312 L 205.976562 87.367188 C 205.976562 87.0625 205.726562 86.8125 205.417969 86.8125 C 205.113281 86.8125 204.863281 87.0625 204.863281 87.367188 L 204.863281 91.820312 L 202.082031 91.820312 C 201.773438 91.820312 201.523438 92.070312 201.523438 92.375 L 201.523438 96.269531 L 198.742188 96.269531 C 198.4375 96.269531 198.1875 96.523438 198.1875 96.828125 L 198.1875 121.328125 C 197.71875 120.96875 197.144531 120.753906 196.515625 120.753906 L 185.945312 120.753906 L 185.945312 113.519531 C 185.945312 113.332031 185.84375 113.148438 185.683594 113.046875 L 177.042969 107.648438 L 177.042969 99.054688 C 177.042969 98.863281 176.941406 98.679688 176.78125 98.582031 L 168.140625 93.183594 L 168.140625 87.925781 C 168.140625 87.726562 168.03125 87.535156 167.851562 87.4375 C 167.679688 87.339844 167.460938 87.347656 167.289062 87.453125 L 158.386719 93.015625 C 158.226562 93.117188 158.125 93.300781 158.125 93.488281 L 158.125 105.175781 L 145.882812 105.175781 L 145.882812 104.617188 C 145.882812 104.3125 145.632812 104.0625 145.328125 104.0625 L 126.410156 104.0625 C 126.105469 104.0625 125.855469 104.3125 125.855469 104.617188 L 125.855469 109.070312 C 125.855469 109.375 126.105469 109.625 126.410156 109.625 L 128.078125 109.625 L 128.078125 114.078125 L 124.183594 114.078125 C 123.878906 114.078125 123.628906 114.328125 123.628906 114.632812 L 123.628906 122.980469 L 115.839844 122.980469 L 115.839844 90.152344 C 115.839844 88.617188 114.59375 87.367188 113.054688 87.367188 L 81.898438 87.367188 C 80.363281 87.367188 79.117188 88.617188 79.117188 90.152344 L 79.117188 95.636719 L 69.34375 92.703125 C 68.496094 92.449219 67.597656 92.605469 66.886719 93.132812 C 66.167969 93.667969 65.761719 94.480469 65.761719 95.371094 L 65.761719 151.910156 L 64.648438 151.910156 L 64.648438 153.023438 L 312.804688 153.023438 L 312.804688 151.910156 Z M 66.875 106.199219 L 74.664062 104.246094 L 74.664062 109.757812 L 66.875 111.707031 Z M 66.875 112.851562 L 74.664062 110.90625 L 74.664062 116.433594 L 66.875 118.382812 Z M 66.875 119.527344 L 74.664062 117.582031 L 74.664062 123.113281 L 66.875 125.058594 Z M 66.875 126.207031 L 74.664062 124.257812 L 74.664062 129.777344 L 66.875 131.703125 Z M 88.019531 151.910156 L 66.875 151.910156 L 66.875 132.847656 L 75.355469 130.75 C 75.605469 130.691406 75.777344 130.46875 75.777344 130.210938 L 75.777344 103.527344 C 75.777344 103.355469 75.699219 103.191406 75.566406 103.085938 C 75.425781 102.988281 75.253906 102.949219 75.085938 102.988281 L 66.875 105.050781 L 66.875 95.371094 C 66.875 94.835938 67.121094 94.347656 67.546875 94.027344 C 67.976562 93.710938 68.515625 93.617188 69.023438 93.769531 L 79.117188 96.792969 L 79.117188 96.828125 L 79.222656 96.828125 L 88.019531 99.464844 Z M 123.628906 151.910156 L 106.9375 151.910156 L 106.9375 148.507812 C 108.242188 148.183594 109.207031 146.621094 109.207031 144.679688 C 109.207031 142.738281 107.164062 138.273438 106.929688 137.769531 C 106.839844 137.574219 106.648438 137.445312 106.425781 137.445312 C 106.203125 137.445312 106.011719 137.574219 105.921875 137.769531 C 105.691406 138.273438 103.640625 142.769531 103.640625 144.679688 C 103.640625 146.585938 104.566406 148.105469 105.824219 148.484375 L 105.824219 151.910156 L 95.808594 151.910156 L 95.808594 146.296875 C 96.9375 146.0625 98.078125 144.933594 98.078125 141.339844 C 98.078125 137.953125 95.917969 131.425781 95.824219 131.148438 C 95.753906 130.925781 95.539062 130.769531 95.296875 130.769531 C 95.050781 130.769531 94.84375 130.925781 94.773438 131.148438 C 94.679688 131.425781 92.515625 137.953125 92.515625 141.339844 C 92.515625 144.730469 93.59375 145.992188 94.695312 146.269531 L 94.695312 151.910156 L 89.132812 151.910156 L 89.132812 99.054688 C 89.132812 98.808594 88.96875 98.589844 88.734375 98.519531 L 80.230469 95.972656 L 80.230469 90.152344 C 80.230469 89.234375 80.980469 88.480469 81.898438 88.480469 L 113.054688 88.480469 C 113.976562 88.480469 114.726562 89.234375 114.726562 90.152344 L 114.726562 123.535156 C 114.726562 123.839844 114.976562 124.089844 115.28125 124.089844 L 123.628906 124.089844 Z M 106.425781 147.460938 C 105.523438 147.460938 104.753906 146.1875 104.753906 144.679688 C 104.753906 143.570312 105.71875 141.054688 106.425781 139.382812 C 107.136719 141.054688 108.09375 143.570312 108.09375 144.679688 C 108.09375 146.1875 107.332031 147.460938 106.425781 147.460938 Z M 95.296875 145.234375 C 93.921875 145.234375 93.628906 143.113281 93.628906 141.339844 C 93.628906 139.140625 94.652344 135.375 95.296875 133.195312 C 95.945312 135.375 96.964844 139.140625 96.964844 141.339844 C 96.964844 143.113281 96.675781 145.234375 95.296875 145.234375 Z M 126.964844 108.511719 L 126.964844 105.175781 L 144.773438 105.175781 L 144.773438 108.511719 Z M 137.539062 114.078125 L 129.191406 114.078125 L 129.191406 109.625 L 142.546875 109.625 L 142.546875 119.640625 L 138.09375 119.640625 L 138.09375 114.632812 C 138.09375 114.328125 137.84375 114.078125 137.539062 114.078125 Z M 138.09375 151.910156 L 132.53125 151.910156 L 132.53125 146.347656 L 138.09375 146.347656 Z M 145.882812 151.910156 L 139.207031 151.910156 L 139.207031 145.792969 C 139.207031 145.484375 138.957031 145.234375 138.652344 145.234375 L 131.972656 145.234375 C 131.667969 145.234375 131.417969 145.484375 131.417969 145.792969 L 131.417969 151.910156 L 124.742188 151.910156 L 124.742188 115.1875 L 136.980469 115.1875 L 136.980469 120.195312 C 136.980469 120.503906 137.230469 120.753906 137.539062 120.753906 L 145.882812 120.753906 Z M 158.125 151.910156 L 153.117188 151.910156 L 153.117188 146.285156 C 154.234375 146.03125 155.34375 144.882812 155.34375 141.339844 C 155.34375 137.796875 153.179688 131.425781 153.089844 131.148438 C 153.011719 130.925781 152.800781 130.769531 152.5625 130.769531 C 152.320312 130.769531 152.109375 130.925781 152.03125 131.148438 C 151.945312 131.425781 149.777344 137.953125 149.777344 141.339844 C 149.777344 144.730469 150.886719 146.03125 152.003906 146.285156 L 152.003906 151.910156 L 146.996094 151.910156 L 146.996094 120.195312 C 146.996094 119.890625 146.746094 119.640625 146.441406 119.640625 L 143.660156 119.640625 L 143.660156 109.625 L 145.328125 109.625 C 145.632812 109.625 145.882812 109.375 145.882812 109.070312 L 145.882812 106.285156 L 158.125 106.285156 Z M 152.5625 145.234375 C 151.179688 145.234375 150.890625 143.113281 150.890625 141.339844 C 150.890625 139.140625 151.910156 135.375 152.5625 133.195312 C 153.210938 135.375 154.230469 139.140625 154.230469 141.339844 C 154.230469 143.113281 153.941406 145.234375 152.5625 145.234375 Z M 167.027344 151.910156 L 159.238281 151.910156 L 159.238281 93.796875 L 167.027344 88.925781 Z M 177.042969 108.957031 L 184.832031 113.824219 L 184.832031 120.753906 L 177.042969 120.753906 Z M 171.480469 123.535156 L 171.480469 151.910156 L 168.140625 151.910156 L 168.140625 94.492188 L 175.929688 99.359375 L 175.929688 120.753906 L 174.261719 120.753906 C 172.726562 120.753906 171.480469 122 171.480469 123.535156 Z M 188.171875 151.910156 L 182.605469 151.910156 L 182.605469 146.347656 L 188.171875 146.347656 Z M 198.1875 151.910156 L 189.285156 151.910156 L 189.285156 145.792969 C 189.285156 145.484375 189.035156 145.234375 188.726562 145.234375 L 182.050781 145.234375 C 181.746094 145.234375 181.496094 145.484375 181.496094 145.792969 L 181.496094 151.910156 L 172.59375 151.910156 L 172.59375 123.535156 C 172.59375 122.617188 173.34375 121.867188 174.261719 121.867188 L 196.515625 121.867188 C 197.433594 121.867188 198.1875 122.617188 198.1875 123.535156 Z M 202.636719 92.933594 L 208.203125 92.933594 L 208.203125 96.269531 L 202.636719 96.269531 Z M 211.539062 151.910156 L 208.203125 151.910156 L 208.203125 149.128906 L 207.089844 149.128906 L 207.089844 151.910156 L 203.75 151.910156 L 203.75 149.128906 L 202.636719 149.128906 L 202.636719 151.910156 L 199.300781 151.910156 L 199.300781 97.382812 L 211.539062 97.382812 Z M 226.007812 151.910156 L 212.652344 151.910156 L 212.652344 146.347656 L 223.226562 146.347656 L 223.226562 145.234375 L 212.652344 145.234375 L 212.652344 141.898438 L 223.226562 141.898438 L 223.226562 140.785156 L 212.652344 140.785156 L 212.652344 137.445312 L 223.226562 137.445312 L 223.226562 136.332031 L 212.652344 136.332031 L 212.652344 132.992188 L 223.226562 132.992188 L 223.226562 131.882812 L 212.652344 131.882812 L 212.652344 128.542969 L 223.226562 128.542969 L 223.226562 127.429688 L 212.652344 127.429688 L 212.652344 124.089844 L 223.226562 124.089844 L 223.226562 122.980469 L 212.652344 122.980469 L 212.652344 119.527344 L 226.007812 116.445312 Z M 234.910156 151.910156 L 231.570312 151.910156 L 231.570312 119.640625 L 234.910156 119.640625 Z M 241.585938 151.910156 L 236.023438 151.910156 L 236.023438 119.082031 C 236.023438 118.777344 235.773438 118.527344 235.464844 118.527344 L 231.015625 118.527344 C 230.707031 118.527344 230.457031 118.777344 230.457031 119.082031 L 230.457031 151.910156 L 227.121094 151.910156 L 227.121094 90.152344 C 227.121094 89.234375 227.871094 88.480469 228.789062 88.480469 L 230.457031 88.480469 L 230.457031 114.632812 C 230.457031 114.9375 230.707031 115.1875 231.015625 115.1875 L 241.585938 115.1875 Z M 248.355469 104.617188 L 248.261719 151.910156 L 242.699219 151.910156 L 242.699219 114.632812 C 242.699219 114.328125 242.449219 114.078125 242.140625 114.078125 L 231.570312 114.078125 L 231.570312 88.480469 L 252.15625 88.480469 C 253.074219 88.480469 253.828125 89.234375 253.828125 90.152344 L 253.828125 103.4375 L 248.839844 104.066406 C 248.570312 104.101562 248.355469 104.339844 248.355469 104.617188 Z M 266.066406 140.785156 L 260.503906 140.785156 L 260.503906 135.21875 L 266.066406 135.21875 Z M 266.066406 134.105469 L 260.503906 134.105469 L 260.503906 127.429688 L 266.066406 127.429688 Z M 266.066406 126.316406 L 260.503906 126.316406 L 260.503906 119.640625 L 266.066406 119.640625 Z M 266.066406 118.527344 L 260.503906 118.527344 L 260.503906 111.851562 L 266.066406 111.851562 Z M 266.066406 110.738281 L 259.949219 110.738281 C 259.640625 110.738281 259.390625 110.988281 259.390625 111.292969 L 259.390625 141.339844 C 259.390625 141.644531 259.640625 141.898438 259.949219 141.898438 L 266.066406 141.898438 L 266.066406 151.910156 L 249.375 151.910156 L 249.46875 105.105469 L 266.066406 103.019531 Z M 292.773438 151.910156 L 287.210938 151.910156 L 287.210938 148.507812 C 288.519531 148.183594 289.480469 146.621094 289.480469 144.679688 C 289.480469 142.738281 287.4375 138.273438 287.207031 137.769531 C 287.117188 137.574219 286.921875 137.445312 286.699219 137.445312 C 286.476562 137.445312 286.289062 137.574219 286.199219 137.769531 C 285.964844 138.273438 283.917969 142.769531 283.917969 144.679688 C 283.917969 146.585938 284.839844 148.105469 286.097656 148.484375 L 286.097656 151.910156 L 267.179688 151.910156 L 267.179688 116.058594 L 273.824219 111.96875 L 280.800781 117.296875 C 280.894531 117.375 281.019531 117.414062 281.136719 117.414062 L 292.773438 117.414062 Z M 286.699219 147.460938 C 285.796875 147.460938 285.03125 146.1875 285.03125 144.679688 C 285.03125 143.570312 285.992188 141.054688 286.699219 139.382812 C 287.410156 141.054688 288.367188 143.570312 288.367188 144.679688 C 288.367188 146.1875 287.605469 147.460938 286.699219 147.460938 Z M 298.339844 97.382812 L 306.128906 97.382812 L 306.128906 100.722656 L 298.339844 100.722656 Z M 296.113281 101.835938 L 308.355469 101.835938 L 308.355469 105.175781 L 296.113281 105.175781 Z M 310.578125 151.910156 L 293.886719 151.910156 L 293.886719 106.285156 L 310.578125 106.285156 Z M 310.578125 151.910156 " fill-opacity="1" fill-rule="nonzero"/></g><path fill="#3f3f3f" d="M 83.566406 110.179688 L 84.679688 110.179688 L 84.679688 114.632812 L 83.566406 114.632812 Z M 83.566406 110.179688 " fill-opacity="1" fill-rule="nonzero"/><path fill="#3f3f3f" d="M 83.566406 147.460938 L 78.558594 147.460938 L 78.558594 148.574219 L 84.125 148.574219 C 84.429688 148.574219 84.679688 148.324219 84.679688 148.015625 L 84.679688 116.859375 L 83.566406 116.859375 Z M 83.566406 147.460938 " fill-opacity="1" fill-rule="nonzero"/><path fill="#3f3f3f" d="M 83.566406 103.503906 L 84.679688 103.503906 L 84.679688 107.957031 L 83.566406 107.957031 Z M 83.566406 103.503906 " fill-opacity="1" fill-rule="nonzero"/><path fill="#3f3f3f" d="M 101.371094 91.265625 L 102.484375 91.265625 L 102.484375 93.488281 L 101.371094 93.488281 Z M 101.371094 91.265625 " fill-opacity="1" fill-rule="nonzero"/><path fill="#3f3f3f" d="M 105.824219 91.265625 L 106.9375 91.265625 L 106.9375 93.488281 L 105.824219 93.488281 Z M 105.824219 91.265625 " fill-opacity="1" fill-rule="nonzero"/><path fill="#3f3f3f" d="M 92.46875 91.265625 L 93.582031 91.265625 L 93.582031 93.488281 L 92.46875 93.488281 Z M 92.46875 91.265625 " fill-opacity="1" fill-rule="nonzero"/><path fill="#3f3f3f" d="M 96.921875 91.265625 L 98.035156 91.265625 L 98.035156 93.488281 L 96.921875 93.488281 Z M 96.921875 91.265625 " fill-opacity="1" fill-rule="nonzero"/><path fill="#3f3f3f" d="M 101.371094 95.714844 L 102.484375 95.714844 L 102.484375 97.941406 L 101.371094 97.941406 Z M 101.371094 95.714844 " fill-opacity="1" fill-rule="nonzero"/><path fill="#3f3f3f" d="M 105.824219 95.714844 L 106.9375 95.714844 L 106.9375 97.941406 L 105.824219 97.941406 Z M 105.824219 95.714844 " fill-opacity="1" fill-rule="nonzero"/><path fill="#3f3f3f" d="M 101.371094 100.167969 L 102.484375 100.167969 L 102.484375 102.390625 L 101.371094 102.390625 Z M 101.371094 100.167969 " fill-opacity="1" fill-rule="nonzero"/><path fill="#3f3f3f" d="M 110.273438 91.265625 L 111.386719 91.265625 L 111.386719 93.488281 L 110.273438 93.488281 Z M 110.273438 91.265625 " fill-opacity="1" fill-rule="nonzero"/><path fill="#3f3f3f" d="M 101.371094 104.617188 L 102.484375 104.617188 L 102.484375 106.84375 L 101.371094 106.84375 Z M 101.371094 104.617188 " fill-opacity="1" fill-rule="nonzero"/><path fill="#3f3f3f" d="M 110.273438 95.714844 L 111.386719 95.714844 L 111.386719 97.941406 L 110.273438 97.941406 Z M 110.273438 95.714844 " fill-opacity="1" fill-rule="nonzero"/><path fill="#3f3f3f" d="M 101.371094 109.070312 L 102.484375 109.070312 L 102.484375 111.292969 L 101.371094 111.292969 Z M 101.371094 109.070312 " fill-opacity="1" fill-rule="nonzero"/><path fill="#3f3f3f" d="M 110.273438 100.167969 L 111.386719 100.167969 L 111.386719 102.390625 L 110.273438 102.390625 Z M 110.273438 100.167969 " fill-opacity="1" fill-rule="nonzero"/><path fill="#3f3f3f" d="M 101.371094 113.519531 L 102.484375 113.519531 L 102.484375 115.746094 L 101.371094 115.746094 Z M 101.371094 113.519531 " fill-opacity="1" fill-rule="nonzero"/><path fill="#3f3f3f" d="M 110.273438 104.617188 L 111.386719 104.617188 L 111.386719 106.84375 L 110.273438 106.84375 Z M 110.273438 104.617188 " fill-opacity="1" fill-rule="nonzero"/><path fill="#3f3f3f" d="M 101.371094 117.972656 L 102.484375 117.972656 L 102.484375 120.195312 L 101.371094 120.195312 Z M 101.371094 117.972656 " fill-opacity="1" fill-rule="nonzero"/><path fill="#3f3f3f" d="M 110.273438 109.070312 L 111.386719 109.070312 L 111.386719 111.292969 L 110.273438 111.292969 Z M 110.273438 109.070312 " fill-opacity="1" fill-rule="nonzero"/><path fill="#3f3f3f" d="M 101.371094 122.421875 L 102.484375 122.421875 L 102.484375 124.648438 L 101.371094 124.648438 Z M 101.371094 122.421875 " fill-opacity="1" fill-rule="nonzero"/><path fill="#3f3f3f" d="M 110.273438 113.519531 L 111.386719 113.519531 L 111.386719 115.746094 L 110.273438 115.746094 Z M 110.273438 113.519531 " fill-opacity="1" fill-rule="nonzero"/><path fill="#3f3f3f" d="M 101.371094 126.875 L 102.484375 126.875 L 102.484375 129.097656 L 101.371094 129.097656 Z M 101.371094 126.875 " fill-opacity="1" fill-rule="nonzero"/><path fill="#3f3f3f" d="M 110.273438 117.972656 L 111.386719 117.972656 L 111.386719 120.195312 L 110.273438 120.195312 Z M 110.273438 117.972656 " fill-opacity="1" fill-rule="nonzero"/><path fill="#3f3f3f" d="M 110.273438 122.421875 L 111.386719 122.421875 L 111.386719 124.648438 L 110.273438 124.648438 Z M 110.273438 122.421875 " fill-opacity="1" fill-rule="nonzero"/><path fill="#3f3f3f" d="M 110.273438 126.875 L 111.386719 126.875 L 111.386719 129.097656 L 110.273438 129.097656 Z M 110.273438 126.875 " fill-opacity="1" fill-rule="nonzero"/><path fill="#3f3f3f" d="M 105.824219 131.324219 L 106.9375 131.324219 L 106.9375 133.550781 L 105.824219 133.550781 Z M 105.824219 131.324219 " fill-opacity="1" fill-rule="nonzero"/><path fill="#3f3f3f" d="M 101.371094 131.324219 L 102.484375 131.324219 L 102.484375 133.550781 L 101.371094 133.550781 Z M 101.371094 131.324219 " fill-opacity="1" fill-rule="nonzero"/><path fill="#3f3f3f" d="M 105.824219 100.167969 L 106.9375 100.167969 L 106.9375 102.390625 L 105.824219 102.390625 Z M 105.824219 100.167969 " fill-opacity="1" fill-rule="nonzero"/><path fill="#3f3f3f" d="M 105.824219 104.617188 L 106.9375 104.617188 L 106.9375 106.84375 L 105.824219 106.84375 Z M 105.824219 104.617188 " fill-opacity="1" fill-rule="nonzero"/><path fill="#3f3f3f" d="M 92.46875 100.167969 L 93.582031 100.167969 L 93.582031 102.390625 L 92.46875 102.390625 Z M 92.46875 100.167969 " fill-opacity="1" fill-rule="nonzero"/><path fill="#3f3f3f" d="M 92.46875 104.617188 L 93.582031 104.617188 L 93.582031 106.84375 L 92.46875 106.84375 Z M 92.46875 104.617188 " fill-opacity="1" fill-rule="nonzero"/><path fill="#3f3f3f" d="M 96.921875 100.167969 L 98.035156 100.167969 L 98.035156 102.390625 L 96.921875 102.390625 Z M 96.921875 100.167969 " fill-opacity="1" fill-rule="nonzero"/><path fill="#3f3f3f" d="M 96.921875 104.617188 L 98.035156 104.617188 L 98.035156 106.84375 L 96.921875 106.84375 Z M 96.921875 104.617188 " fill-opacity="1" fill-rule="nonzero"/><path fill="#3f3f3f" d="M 105.824219 109.070312 L 106.9375 109.070312 L 106.9375 111.292969 L 105.824219 111.292969 Z M 105.824219 109.070312 " fill-opacity="1" fill-rule="nonzero"/><path fill="#3f3f3f" d="M 105.824219 113.519531 L 106.9375 113.519531 L 106.9375 115.746094 L 105.824219 115.746094 Z M 105.824219 113.519531 " fill-opacity="1" fill-rule="nonzero"/><path fill="#3f3f3f" d="M 105.824219 117.972656 L 106.9375 117.972656 L 106.9375 120.195312 L 105.824219 120.195312 Z M 105.824219 117.972656 " fill-opacity="1" fill-rule="nonzero"/><path fill="#3f3f3f" d="M 105.824219 122.421875 L 106.9375 122.421875 L 106.9375 124.648438 L 105.824219 124.648438 Z M 105.824219 122.421875 " fill-opacity="1" fill-rule="nonzero"/><path fill="#3f3f3f" d="M 105.824219 126.875 L 106.9375 126.875 L 106.9375 129.097656 L 105.824219 129.097656 Z M 105.824219 126.875 " fill-opacity="1" fill-rule="nonzero"/><path fill="#3f3f3f" d="M 119.175781 126.875 L 120.289062 126.875 L 120.289062 129.097656 L 119.175781 129.097656 Z M 119.175781 126.875 " fill-opacity="1" fill-rule="nonzero"/><path fill="#3f3f3f" d="M 114.726562 126.875 L 115.839844 126.875 L 115.839844 129.097656 L 114.726562 129.097656 Z M 114.726562 126.875 " fill-opacity="1" fill-rule="nonzero"/><path fill="#3f3f3f" d="M 110.273438 131.324219 L 111.386719 131.324219 L 111.386719 133.550781 L 110.273438 133.550781 Z M 110.273438 131.324219 " fill-opacity="1" fill-rule="nonzero"/><path fill="#3f3f3f" d="M 119.175781 131.324219 L 120.289062 131.324219 L 120.289062 133.550781 L 119.175781 133.550781 Z M 119.175781 131.324219 " fill-opacity="1" fill-rule="nonzero"/><path fill="#3f3f3f" d="M 114.726562 131.324219 L 115.839844 131.324219 L 115.839844 133.550781 L 114.726562 133.550781 Z M 114.726562 131.324219 " fill-opacity="1" fill-rule="nonzero"/><path fill="#3f3f3f" d="M 119.175781 135.777344 L 120.289062 135.777344 L 120.289062 138 L 119.175781 138 Z M 119.175781 135.777344 " fill-opacity="1" fill-rule="nonzero"/><path fill="#3f3f3f" d="M 114.726562 135.777344 L 115.839844 135.777344 L 115.839844 138 L 114.726562 138 Z M 114.726562 135.777344 " fill-opacity="1" fill-rule="nonzero"/><path fill="#3f3f3f" d="M 119.175781 140.226562 L 120.289062 140.226562 L 120.289062 142.453125 L 119.175781 142.453125 Z M 119.175781 140.226562 " fill-opacity="1" fill-rule="nonzero"/><path fill="#3f3f3f" d="M 114.726562 140.226562 L 115.839844 140.226562 L 115.839844 142.453125 L 114.726562 142.453125 Z M 114.726562 140.226562 " fill-opacity="1" fill-rule="nonzero"/><path fill="#3f3f3f" d="M 119.175781 144.679688 L 120.289062 144.679688 L 120.289062 146.902344 L 119.175781 146.902344 Z M 119.175781 144.679688 " fill-opacity="1" fill-rule="nonzero"/><path fill="#3f3f3f" d="M 114.726562 144.679688 L 115.839844 144.679688 L 115.839844 146.902344 L 114.726562 146.902344 Z M 114.726562 144.679688 " fill-opacity="1" fill-rule="nonzero"/><path fill="#3f3f3f" d="M 92.46875 95.714844 L 93.582031 95.714844 L 93.582031 97.941406 L 92.46875 97.941406 Z M 92.46875 95.714844 " fill-opacity="1" fill-rule="nonzero"/><path fill="#3f3f3f" d="M 96.921875 95.714844 L 98.035156 95.714844 L 98.035156 97.941406 L 96.921875 97.941406 Z M 96.921875 95.714844 " fill-opacity="1" fill-rule="nonzero"/><path fill="#3f3f3f" d="M 92.46875 109.070312 L 93.582031 109.070312 L 93.582031 111.292969 L 92.46875 111.292969 Z M 92.46875 109.070312 " fill-opacity="1" fill-rule="nonzero"/><path fill="#3f3f3f" d="M 96.921875 109.070312 L 98.035156 109.070312 L 98.035156 111.292969 L 96.921875 111.292969 Z M 96.921875 109.070312 " fill-opacity="1" fill-rule="nonzero"/><path fill="#3f3f3f" d="M 83.566406 91.265625 L 84.679688 91.265625 L 84.679688 93.488281 L 83.566406 93.488281 Z M 83.566406 91.265625 " fill-opacity="1" fill-rule="nonzero"/><path fill="#3f3f3f" d="M 88.019531 91.265625 L 89.132812 91.265625 L 89.132812 93.488281 L 88.019531 93.488281 Z M 88.019531 91.265625 " fill-opacity="1" fill-rule="nonzero"/><path fill="#3f3f3f" d="M 92.46875 113.519531 L 93.582031 113.519531 L 93.582031 115.746094 L 92.46875 115.746094 Z M 92.46875 113.519531 " fill-opacity="1" fill-rule="nonzero"/><path fill="#3f3f3f" d="M 92.46875 117.972656 L 93.582031 117.972656 L 93.582031 120.195312 L 92.46875 120.195312 Z M 92.46875 117.972656 " fill-opacity="1" fill-rule="nonzero"/><path fill="#3f3f3f" d="M 96.921875 113.519531 L 98.035156 113.519531 L 98.035156 115.746094 L 96.921875 115.746094 Z M 96.921875 113.519531 " fill-opacity="1" fill-rule="nonzero"/><path fill="#3f3f3f" d="M 96.921875 117.972656 L 98.035156 117.972656 L 98.035156 120.195312 L 96.921875 120.195312 Z M 96.921875 117.972656 " fill-opacity="1" fill-rule="nonzero"/><path fill="#3f3f3f" d="M 92.46875 122.421875 L 93.582031 122.421875 L 93.582031 124.648438 L 92.46875 124.648438 Z M 92.46875 122.421875 " fill-opacity="1" fill-rule="nonzero"/><path fill="#3f3f3f" d="M 96.921875 122.421875 L 98.035156 122.421875 L 98.035156 124.648438 L 96.921875 124.648438 Z M 96.921875 122.421875 " fill-opacity="1" fill-rule="nonzero"/><path fill="#3f3f3f" d="M 92.46875 126.875 L 93.582031 126.875 L 93.582031 129.097656 L 92.46875 129.097656 Z M 92.46875 126.875 " fill-opacity="1" fill-rule="nonzero"/><path fill="#3f3f3f" d="M 96.921875 126.875 L 98.035156 126.875 L 98.035156 129.097656 L 96.921875 129.097656 Z M 96.921875 126.875 " fill-opacity="1" fill-rule="nonzero"/><path fill="#3f3f3f" d="M 193.734375 124.648438 L 194.847656 124.648438 L 194.847656 129.097656 L 193.734375 129.097656 Z M 193.734375 124.648438 " fill-opacity="1" fill-rule="nonzero"/><path fill="#3f3f3f" d="M 189.285156 124.648438 L 190.398438 124.648438 L 190.398438 129.097656 L 189.285156 129.097656 Z M 189.285156 124.648438 " fill-opacity="1" fill-rule="nonzero"/><path fill="#3f3f3f" d="M 180.382812 124.648438 L 181.496094 124.648438 L 181.496094 129.097656 L 180.382812 129.097656 Z M 180.382812 124.648438 " fill-opacity="1" fill-rule="nonzero"/><path fill="#3f3f3f" d="M 175.929688 124.648438 L 177.042969 124.648438 L 177.042969 129.097656 L 175.929688 129.097656 Z M 175.929688 124.648438 " fill-opacity="1" fill-rule="nonzero"/><path fill="#3f3f3f" d="M 193.734375 131.324219 L 194.847656 131.324219 L 194.847656 135.777344 L 193.734375 135.777344 Z M 193.734375 131.324219 " fill-opacity="1" fill-rule="nonzero"/><path fill="#3f3f3f" d="M 189.285156 131.324219 L 190.398438 131.324219 L 190.398438 135.777344 L 189.285156 135.777344 Z M 189.285156 131.324219 " fill-opacity="1" fill-rule="nonzero"/><path fill="#3f3f3f" d="M 180.382812 131.324219 L 181.496094 131.324219 L 181.496094 135.777344 L 180.382812 135.777344 Z M 180.382812 131.324219 " fill-opacity="1" fill-rule="nonzero"/><path fill="#3f3f3f" d="M 175.929688 131.324219 L 177.042969 131.324219 L 177.042969 135.777344 L 175.929688 135.777344 Z M 175.929688 131.324219 " fill-opacity="1" fill-rule="nonzero"/><path fill="#3f3f3f" d="M 193.734375 138 L 194.847656 138 L 194.847656 142.453125 L 193.734375 142.453125 Z M 193.734375 138 " fill-opacity="1" fill-rule="nonzero"/><path fill="#3f3f3f" d="M 193.734375 144.679688 L 194.847656 144.679688 L 194.847656 149.128906 L 193.734375 149.128906 Z M 193.734375 144.679688 " fill-opacity="1" fill-rule="nonzero"/><path fill="#3f3f3f" d="M 189.285156 138 L 190.398438 138 L 190.398438 142.453125 L 189.285156 142.453125 Z M 189.285156 138 " fill-opacity="1" fill-rule="nonzero"/><path fill="#3f3f3f" d="M 180.382812 138 L 181.496094 138 L 181.496094 142.453125 L 180.382812 142.453125 Z M 180.382812 138 " fill-opacity="1" fill-rule="nonzero"/><path fill="#3f3f3f" d="M 175.929688 138 L 177.042969 138 L 177.042969 142.453125 L 175.929688 142.453125 Z M 175.929688 138 " fill-opacity="1" fill-rule="nonzero"/><path fill="#3f3f3f" d="M 175.929688 144.679688 L 177.042969 144.679688 L 177.042969 149.128906 L 175.929688 149.128906 Z M 175.929688 144.679688 " fill-opacity="1" fill-rule="nonzero"/><path fill="#3f3f3f" d="M 184.832031 124.648438 L 185.945312 124.648438 L 185.945312 129.097656 L 184.832031 129.097656 Z M 184.832031 124.648438 " fill-opacity="1" fill-rule="nonzero"/><path fill="#3f3f3f" d="M 184.832031 131.324219 L 185.945312 131.324219 L 185.945312 135.777344 L 184.832031 135.777344 Z M 184.832031 131.324219 " fill-opacity="1" fill-rule="nonzero"/><path fill="#3f3f3f" d="M 184.832031 138 L 185.945312 138 L 185.945312 142.453125 L 184.832031 142.453125 Z M 184.832031 138 " fill-opacity="1" fill-rule="nonzero"/><path fill="#3f3f3f" d="M 207.644531 100.722656 L 203.195312 100.722656 C 202.886719 100.722656 202.636719 100.972656 202.636719 101.277344 L 202.636719 127.988281 C 202.636719 128.292969 202.886719 128.542969 203.195312 128.542969 L 207.644531 128.542969 C 207.953125 128.542969 208.203125 128.292969 208.203125 127.988281 L 208.203125 101.277344 C 208.203125 100.972656 207.953125 100.722656 207.644531 100.722656 Z M 207.089844 127.429688 L 203.75 127.429688 L 203.75 119.640625 L 207.089844 119.640625 Z M 207.089844 118.527344 L 203.75 118.527344 L 203.75 110.738281 L 207.089844 110.738281 Z M 207.089844 109.625 L 203.75 109.625 L 203.75 101.835938 L 207.089844 101.835938 Z M 207.089844 109.625 " fill-opacity="1" fill-rule="nonzero"/><path fill="#3f3f3f" d="M 207.089844 131.324219 L 208.203125 131.324219 L 208.203125 133.550781 L 207.089844 133.550781 Z M 207.089844 131.324219 " fill-opacity="1" fill-rule="nonzero"/><path fill="#3f3f3f" d="M 207.089844 135.777344 L 208.203125 135.777344 L 208.203125 138 L 207.089844 138 Z M 207.089844 135.777344 " fill-opacity="1" fill-rule="nonzero"/><path fill="#3f3f3f" d="M 207.089844 140.226562 L 208.203125 140.226562 L 208.203125 142.453125 L 207.089844 142.453125 Z M 207.089844 140.226562 " fill-opacity="1" fill-rule="nonzero"/><path fill="#3f3f3f" d="M 207.089844 144.679688 L 208.203125 144.679688 L 208.203125 146.902344 L 207.089844 146.902344 Z M 207.089844 144.679688 " fill-opacity="1" fill-rule="nonzero"/><path fill="#3f3f3f" d="M 202.636719 131.324219 L 203.75 131.324219 L 203.75 133.550781 L 202.636719 133.550781 Z M 202.636719 131.324219 " fill-opacity="1" fill-rule="nonzero"/><path fill="#3f3f3f" d="M 202.636719 135.777344 L 203.75 135.777344 L 203.75 138 L 202.636719 138 Z M 202.636719 135.777344 " fill-opacity="1" fill-rule="nonzero"/><path fill="#3f3f3f" d="M 202.636719 140.226562 L 203.75 140.226562 L 203.75 142.453125 L 202.636719 142.453125 Z M 202.636719 140.226562 " fill-opacity="1" fill-rule="nonzero"/><path fill="#3f3f3f" d="M 202.636719 144.679688 L 203.75 144.679688 L 203.75 146.902344 L 202.636719 146.902344 Z M 202.636719 144.679688 " fill-opacity="1" fill-rule="nonzero"/><path fill="#3f3f3f" d="M 162.578125 95.714844 L 163.6875 95.714844 L 163.6875 97.941406 L 162.578125 97.941406 Z M 162.578125 95.714844 " fill-opacity="1" fill-rule="nonzero"/><path fill="#3f3f3f" d="M 162.578125 100.167969 L 163.6875 100.167969 L 163.6875 102.390625 L 162.578125 102.390625 Z M 162.578125 100.167969 " fill-opacity="1" fill-rule="nonzero"/><path fill="#3f3f3f" d="M 162.578125 104.617188 L 163.6875 104.617188 L 163.6875 106.84375 L 162.578125 106.84375 Z M 162.578125 104.617188 " fill-opacity="1" fill-rule="nonzero"/><path fill="#3f3f3f" d="M 162.578125 109.070312 L 163.6875 109.070312 L 163.6875 111.292969 L 162.578125 111.292969 Z M 162.578125 109.070312 " fill-opacity="1" fill-rule="nonzero"/><path fill="#3f3f3f" d="M 162.578125 113.519531 L 163.6875 113.519531 L 163.6875 115.746094 L 162.578125 115.746094 Z M 162.578125 113.519531 " fill-opacity="1" fill-rule="nonzero"/><path fill="#3f3f3f" d="M 162.578125 117.972656 L 163.6875 117.972656 L 163.6875 120.195312 L 162.578125 120.195312 Z M 162.578125 117.972656 " fill-opacity="1" fill-rule="nonzero"/><path fill="#3f3f3f" d="M 162.578125 122.421875 L 163.6875 122.421875 L 163.6875 124.648438 L 162.578125 124.648438 Z M 162.578125 122.421875 " fill-opacity="1" fill-rule="nonzero"/><path fill="#3f3f3f" d="M 162.578125 126.875 L 163.6875 126.875 L 163.6875 129.097656 L 162.578125 129.097656 Z M 162.578125 126.875 " fill-opacity="1" fill-rule="nonzero"/><path fill="#3f3f3f" d="M 162.578125 131.324219 L 163.6875 131.324219 L 163.6875 133.550781 L 162.578125 133.550781 Z M 162.578125 131.324219 " fill-opacity="1" fill-rule="nonzero"/><path fill="#3f3f3f" d="M 162.578125 135.777344 L 163.6875 135.777344 L 163.6875 138 L 162.578125 138 Z M 162.578125 135.777344 " fill-opacity="1" fill-rule="nonzero"/><path fill="#3f3f3f" d="M 162.578125 140.226562 L 163.6875 140.226562 L 163.6875 142.453125 L 162.578125 142.453125 Z M 162.578125 140.226562 " fill-opacity="1" fill-rule="nonzero"/><path fill="#3f3f3f" d="M 171.480469 104.617188 L 172.59375 104.617188 L 172.59375 106.84375 L 171.480469 106.84375 Z M 171.480469 104.617188 " fill-opacity="1" fill-rule="nonzero"/><path fill="#3f3f3f" d="M 171.480469 100.167969 L 172.59375 100.167969 L 172.59375 102.390625 L 171.480469 102.390625 Z M 171.480469 100.167969 " fill-opacity="1" fill-rule="nonzero"/><path fill="#3f3f3f" d="M 171.480469 109.070312 L 172.59375 109.070312 L 172.59375 111.292969 L 171.480469 111.292969 Z M 171.480469 109.070312 " fill-opacity="1" fill-rule="nonzero"/><path fill="#3f3f3f" d="M 171.480469 113.519531 L 172.59375 113.519531 L 172.59375 115.746094 L 171.480469 115.746094 Z M 171.480469 113.519531 " fill-opacity="1" fill-rule="nonzero"/><path fill="#3f3f3f" d="M 180.382812 114.632812 L 181.496094 114.632812 L 181.496094 116.859375 L 180.382812 116.859375 Z M 180.382812 114.632812 " fill-opacity="1" fill-rule="nonzero"/><path fill="#3f3f3f" d="M 149.777344 112.964844 L 155.34375 112.964844 L 155.34375 114.078125 L 149.777344 114.078125 Z M 149.777344 112.964844 " fill-opacity="1" fill-rule="nonzero"/><path fill="#3f3f3f" d="M 149.777344 108.511719 L 155.34375 108.511719 L 155.34375 109.625 L 149.777344 109.625 Z M 149.777344 108.511719 " fill-opacity="1" fill-rule="nonzero"/><path fill="#3f3f3f" d="M 149.777344 126.316406 L 155.34375 126.316406 L 155.34375 127.429688 L 149.777344 127.429688 Z M 149.777344 126.316406 " fill-opacity="1" fill-rule="nonzero"/><path fill="#3f3f3f" d="M 149.777344 117.414062 L 155.34375 117.414062 L 155.34375 118.527344 L 149.777344 118.527344 Z M 149.777344 117.414062 " fill-opacity="1" fill-rule="nonzero"/><path fill="#3f3f3f" d="M 149.777344 121.867188 L 155.34375 121.867188 L 155.34375 122.980469 L 149.777344 122.980469 Z M 149.777344 121.867188 " fill-opacity="1" fill-rule="nonzero"/><path fill="#3f3f3f" d="M 185.109375 90.707031 C 188.332031 90.707031 190.953125 88.085938 190.953125 84.863281 C 190.953125 81.644531 188.332031 79.023438 185.109375 79.023438 C 181.890625 79.023438 179.269531 81.644531 179.269531 84.863281 C 179.269531 88.085938 181.890625 90.707031 185.109375 90.707031 Z M 185.109375 80.136719 C 187.71875 80.136719 189.839844 82.253906 189.839844 84.863281 C 189.839844 87.476562 187.71875 89.59375 185.109375 89.59375 C 182.5 89.59375 180.382812 87.476562 180.382812 84.863281 C 180.382812 82.253906 182.5 80.136719 185.109375 80.136719 Z M 185.109375 80.136719 " fill-opacity="1" fill-rule="nonzero"/><g clip-path="url(#65eb3900d8)"><path fill="#3f3f3f" d="M 184.832031 77.910156 C 185.140625 77.910156 185.390625 77.660156 185.390625 77.355469 L 185.390625 75.128906 C 185.390625 74.820312 185.140625 74.570312 184.832031 74.570312 C 184.527344 74.570312 184.277344 74.820312 184.277344 75.128906 L 184.277344 77.355469 C 184.277344 77.660156 184.527344 77.910156 184.832031 77.910156 Z M 184.832031 77.910156 " fill-opacity="1" fill-rule="nonzero"/></g><path fill="#3f3f3f" d="M 180.636719 78.449219 C 180.742188 78.628906 180.925781 78.726562 181.121094 78.726562 C 181.214844 78.726562 181.3125 78.707031 181.398438 78.65625 C 181.667969 78.5 181.753906 78.160156 181.605469 77.894531 L 180.492188 75.960938 C 180.335938 75.695312 179.996094 75.605469 179.730469 75.757812 C 179.464844 75.914062 179.375 76.253906 179.523438 76.519531 Z M 180.636719 78.449219 " fill-opacity="1" fill-rule="nonzero"/><path fill="#3f3f3f" d="M 176.164062 80.285156 L 178.09375 81.398438 C 178.183594 81.449219 178.277344 81.472656 178.371094 81.472656 C 178.566406 81.472656 178.75 81.371094 178.855469 81.191406 C 179.011719 80.925781 178.917969 80.585938 178.652344 80.429688 L 176.71875 79.316406 C 176.453125 79.160156 176.113281 79.257812 175.957031 79.523438 C 175.800781 79.789062 175.898438 80.128906 176.164062 80.285156 Z M 176.164062 80.285156 " fill-opacity="1" fill-rule="nonzero"/><path fill="#3f3f3f" d="M 175.375 85.144531 L 177.597656 85.144531 C 177.90625 85.144531 178.15625 84.894531 178.15625 84.585938 C 178.15625 84.28125 177.90625 84.03125 177.597656 84.03125 L 175.375 84.03125 C 175.066406 84.03125 174.816406 84.28125 174.816406 84.585938 C 174.816406 84.894531 175.066406 85.144531 175.375 85.144531 Z M 175.375 85.144531 " fill-opacity="1" fill-rule="nonzero"/><path fill="#3f3f3f" d="M 178.09375 87.941406 L 176.164062 89.054688 C 175.898438 89.210938 175.808594 89.550781 175.957031 89.816406 C 176.0625 89.996094 176.246094 90.09375 176.441406 90.09375 C 176.535156 90.09375 176.632812 90.074219 176.71875 90.023438 L 178.652344 88.910156 C 178.917969 88.753906 179.007812 88.414062 178.855469 88.148438 C 178.699219 87.878906 178.363281 87.792969 178.09375 87.941406 Z M 178.09375 87.941406 " fill-opacity="1" fill-rule="nonzero"/><path fill="#3f3f3f" d="M 180.636719 90.890625 L 179.523438 92.820312 C 179.367188 93.089844 179.464844 93.429688 179.730469 93.582031 C 179.820312 93.632812 179.914062 93.65625 180.007812 93.65625 C 180.203125 93.65625 180.386719 93.554688 180.492188 93.378906 L 181.605469 91.449219 C 181.761719 91.179688 181.667969 90.839844 181.398438 90.683594 C 181.132812 90.53125 180.792969 90.625 180.636719 90.890625 Z M 180.636719 90.890625 " fill-opacity="1" fill-rule="nonzero"/><path fill="#3f3f3f" d="M 184.277344 92.375 L 184.277344 94.601562 C 184.277344 94.910156 184.527344 95.160156 184.832031 95.160156 C 185.140625 95.160156 185.390625 94.910156 185.390625 94.601562 L 185.390625 92.375 C 185.390625 92.070312 185.140625 91.820312 184.832031 91.820312 C 184.527344 91.820312 184.277344 92.070312 184.277344 92.375 Z M 184.277344 92.375 " fill-opacity="1" fill-rule="nonzero"/><path fill="#3f3f3f" d="M 188.347656 90.691406 C 188.082031 90.847656 187.992188 91.1875 188.144531 91.453125 L 189.257812 93.382812 C 189.363281 93.5625 189.546875 93.660156 189.738281 93.660156 C 189.835938 93.660156 189.929688 93.640625 190.019531 93.589844 C 190.285156 93.433594 190.375 93.09375 190.222656 92.828125 L 189.113281 90.898438 C 188.957031 90.628906 188.617188 90.539062 188.347656 90.691406 Z M 188.347656 90.691406 " fill-opacity="1" fill-rule="nonzero"/><path fill="#3f3f3f" d="M 191.652344 87.941406 C 191.386719 87.785156 191.046875 87.878906 190.890625 88.148438 C 190.734375 88.414062 190.832031 88.753906 191.097656 88.910156 L 193.027344 90.023438 C 193.117188 90.074219 193.210938 90.09375 193.308594 90.09375 C 193.5 90.09375 193.683594 89.996094 193.789062 89.816406 C 193.945312 89.550781 193.851562 89.210938 193.585938 89.054688 Z M 191.652344 87.941406 " fill-opacity="1" fill-rule="nonzero"/><path fill="#3f3f3f" d="M 192.066406 84.585938 C 192.066406 84.894531 192.316406 85.144531 192.621094 85.144531 L 194.847656 85.144531 C 195.152344 85.144531 195.40625 84.894531 195.40625 84.585938 C 195.40625 84.28125 195.152344 84.03125 194.847656 84.03125 L 192.621094 84.03125 C 192.316406 84.03125 192.066406 84.28125 192.066406 84.585938 Z M 192.066406 84.585938 " fill-opacity="1" fill-rule="nonzero"/><path fill="#3f3f3f" d="M 191.375 81.472656 C 191.46875 81.472656 191.566406 81.449219 191.652344 81.398438 L 193.585938 80.285156 C 193.851562 80.128906 193.941406 79.789062 193.789062 79.523438 C 193.636719 79.257812 193.296875 79.167969 193.027344 79.316406 L 191.097656 80.429688 C 190.832031 80.585938 190.742188 80.925781 190.890625 81.191406 C 190.996094 81.371094 191.179688 81.472656 191.375 81.472656 Z M 191.375 81.472656 " fill-opacity="1" fill-rule="nonzero"/><path fill="#3f3f3f" d="M 188.347656 78.648438 C 188.4375 78.699219 188.53125 78.722656 188.628906 78.722656 C 188.820312 78.722656 189.003906 78.621094 189.113281 78.445312 L 190.222656 76.511719 C 190.378906 76.246094 190.285156 75.90625 190.019531 75.75 C 189.75 75.59375 189.410156 75.691406 189.257812 75.957031 L 188.144531 77.886719 C 187.988281 78.15625 188.082031 78.496094 188.347656 78.648438 Z M 188.347656 78.648438 " fill-opacity="1" fill-rule="nonzero"/><g fill="#3f3f3f" fill-opacity="1"><g transform="translate(86.578201, 210.603772)"><g><path d="M 25.609375 -35.59375 C 30.953125 -35.59375 34.976562 -34.566406 37.6875 -32.515625 C 40.394531 -30.472656 41.75 -27.472656 41.75 -23.515625 C 41.75 -21.554688 41.390625 -19.296875 40.671875 -16.734375 C 39.492188 -12.597656 37.90625 -9.316406 35.90625 -6.890625 C 33.914062 -4.472656 31.289062 -2.710938 28.03125 -1.609375 C 24.769531 -0.503906 20.59375 0.03125 15.5 0 L 0.96875 -0.046875 C 0.21875 -0.046875 -0.359375 -0.171875 -0.765625 -0.421875 C -1.179688 -0.671875 -1.390625 -1.007812 -1.390625 -1.4375 C -1.390625 -1.65625 -1.335938 -1.890625 -1.234375 -2.140625 C -1.117188 -2.460938 -0.960938 -2.691406 -0.765625 -2.828125 C -0.578125 -2.972656 -0.285156 -3.171875 0.109375 -3.421875 C 0.679688 -3.742188 1.132812 -4.097656 1.46875 -4.484375 C 1.8125 -4.878906 2.109375 -5.503906 2.359375 -6.359375 L 8.875 -29.34375 C 9.019531 -29.8125 9.09375 -30.257812 9.09375 -30.6875 C 9.09375 -31.070312 9.03125 -31.398438 8.90625 -31.671875 C 8.78125 -31.941406 8.609375 -32.253906 8.390625 -32.609375 C 8.066406 -33.066406 7.90625 -33.441406 7.90625 -33.734375 C 7.90625 -33.835938 7.941406 -34.03125 8.015625 -34.3125 C 8.160156 -34.78125 8.472656 -35.109375 8.953125 -35.296875 C 9.429688 -35.492188 10.171875 -35.59375 11.171875 -35.59375 Z M 27 -17.90625 C 27.925781 -21.257812 28.390625 -23.894531 28.390625 -25.8125 C 28.390625 -27.707031 27.992188 -29.007812 27.203125 -29.71875 C 26.421875 -30.425781 25.300781 -30.78125 23.84375 -30.78125 L 22.671875 -30.78125 L 15.453125 -4.8125 L 16.734375 -4.8125 C 18.367188 -4.8125 19.75 -5.15625 20.875 -5.84375 C 22 -6.539062 23.039062 -7.828125 24 -9.703125 C 24.957031 -11.578125 25.957031 -14.3125 27 -17.90625 Z M 27 -17.90625 "/></g></g></g><g fill="#3f3f3f" fill-opacity="1"><g transform="translate(127.841633, 210.603772)"><g><path d="M 14.046875 -28.28125 C 16.117188 -28.28125 17.632812 -27.882812 18.59375 -27.09375 C 19.5625 -26.3125 20.046875 -25.242188 20.046875 -23.890625 C 20.046875 -23.078125 19.921875 -22.296875 19.671875 -21.546875 L 14.75 -5.5625 C 14.644531 -5.132812 14.59375 -4.757812 14.59375 -4.4375 C 14.59375 -3.96875 14.679688 -3.597656 14.859375 -3.328125 C 15.035156 -3.066406 15.285156 -2.8125 15.609375 -2.5625 C 15.859375 -2.3125 16.035156 -2.101562 16.140625 -1.9375 C 16.242188 -1.78125 16.257812 -1.582031 16.1875 -1.34375 C 16.007812 -0.875 15.65625 -0.53125 15.125 -0.3125 C 14.59375 -0.101562 13.773438 0 12.671875 0 L 0.484375 0 C -0.441406 0 -1.117188 -0.148438 -1.546875 -0.453125 C -1.984375 -0.753906 -2.128906 -1.15625 -1.984375 -1.65625 C -1.835938 -2.082031 -1.460938 -2.457031 -0.859375 -2.78125 C -0.328125 -3.0625 0.113281 -3.398438 0.46875 -3.796875 C 0.832031 -4.191406 1.140625 -4.816406 1.390625 -5.671875 L 6.03125 -21.109375 C 6.144531 -21.429688 6.203125 -21.703125 6.203125 -21.921875 C 6.203125 -22.304688 6.109375 -22.613281 5.921875 -22.84375 C 5.742188 -23.082031 5.476562 -23.328125 5.125 -23.578125 C 4.769531 -23.859375 4.519531 -24.101562 4.375 -24.3125 C 4.238281 -24.53125 4.222656 -24.816406 4.328125 -25.171875 C 4.535156 -25.992188 5.65625 -26.71875 7.6875 -27.34375 C 9.71875 -27.96875 11.835938 -28.28125 14.046875 -28.28125 Z M 17.640625 -40.09375 C 19.023438 -40.09375 20.179688 -39.632812 21.109375 -38.71875 C 22.035156 -37.8125 22.5 -36.703125 22.5 -35.390625 C 22.5 -34.460938 22.257812 -33.550781 21.78125 -32.65625 C 21.300781 -31.769531 20.625 -31.050781 19.75 -30.5 C 18.875 -29.945312 17.898438 -29.671875 16.828125 -29.671875 C 15.472656 -29.671875 14.34375 -30.125 13.4375 -31.03125 C 12.53125 -31.9375 12.0625 -33.066406 12.03125 -34.421875 C 12.03125 -35.316406 12.257812 -36.195312 12.71875 -37.0625 C 13.175781 -37.9375 13.832031 -38.660156 14.6875 -39.234375 C 15.550781 -39.804688 16.535156 -40.09375 17.640625 -40.09375 Z M 17.640625 -40.09375 "/></g></g></g><g fill="#3f3f3f" fill-opacity="1"><g transform="translate(147.404348, 210.603772)"><g><path d="M 33.09375 -7.375 C 33.019531 -7.226562 32.984375 -7.015625 32.984375 -6.734375 C 32.984375 -6.484375 33.046875 -6.285156 33.171875 -6.140625 C 33.296875 -6.003906 33.460938 -5.9375 33.671875 -5.9375 C 34.097656 -5.9375 34.460938 -6.125 34.765625 -6.5 C 35.066406 -6.875 35.273438 -7.0625 35.390625 -7.0625 C 35.566406 -7.0625 35.707031 -6.941406 35.8125 -6.703125 C 35.914062 -6.472656 35.96875 -6.195312 35.96875 -5.875 C 36.007812 -4.84375 35.671875 -3.835938 34.953125 -2.859375 C 34.242188 -1.878906 33.203125 -1.078125 31.828125 -0.453125 C 30.453125 0.171875 28.804688 0.484375 26.890625 0.484375 C 24.535156 0.484375 22.660156 -0.0546875 21.265625 -1.140625 C 19.878906 -2.234375 19.171875 -3.6875 19.140625 -5.5 C 19.140625 -6.820312 19.457031 -8.300781 20.09375 -9.9375 L 23.03125 -17.640625 C 23.21875 -18.097656 23.3125 -18.472656 23.3125 -18.765625 C 23.3125 -19.222656 23.15625 -19.585938 22.84375 -19.859375 C 22.539062 -20.128906 22.175781 -20.265625 21.75 -20.265625 C 20.96875 -20.265625 20.21875 -19.894531 19.5 -19.15625 C 18.789062 -18.425781 18.273438 -17.53125 17.953125 -16.46875 L 14.640625 -5.5625 C 14.503906 -5.164062 14.4375 -4.789062 14.4375 -4.4375 C 14.4375 -4.007812 14.523438 -3.660156 14.703125 -3.390625 C 14.878906 -3.128906 15.128906 -2.851562 15.453125 -2.5625 C 15.703125 -2.351562 15.878906 -2.15625 15.984375 -1.96875 C 16.085938 -1.789062 16.101562 -1.582031 16.03125 -1.34375 C 15.894531 -0.875 15.554688 -0.53125 15.015625 -0.3125 C 14.484375 -0.101562 13.648438 0 12.515625 0 L 0.328125 0 C -0.597656 0 -1.265625 -0.148438 -1.671875 -0.453125 C -2.085938 -0.753906 -2.242188 -1.15625 -2.140625 -1.65625 C -1.992188 -2.082031 -1.617188 -2.457031 -1.015625 -2.78125 C -0.484375 -3.0625 -0.0390625 -3.398438 0.3125 -3.796875 C 0.675781 -4.191406 0.984375 -4.816406 1.234375 -5.671875 L 5.984375 -21.109375 C 6.054688 -21.285156 6.09375 -21.535156 6.09375 -21.859375 C 6.09375 -22.253906 6.007812 -22.554688 5.84375 -22.765625 C 5.6875 -22.984375 5.429688 -23.253906 5.078125 -23.578125 C 4.722656 -23.859375 4.472656 -24.101562 4.328125 -24.3125 C 4.179688 -24.53125 4.164062 -24.816406 4.28125 -25.171875 C 4.488281 -25.992188 5.609375 -26.71875 7.640625 -27.34375 C 9.671875 -27.96875 11.789062 -28.28125 14 -28.28125 C 15.78125 -28.28125 17.1875 -27.789062 18.21875 -26.8125 C 19.257812 -25.832031 19.726562 -24.46875 19.625 -22.71875 C 21.082031 -24.820312 22.628906 -26.273438 24.265625 -27.078125 C 25.910156 -27.878906 27.691406 -28.28125 29.609375 -28.28125 C 31.785156 -28.28125 33.539062 -27.617188 34.875 -26.296875 C 36.207031 -24.984375 36.875 -23.273438 36.875 -21.171875 C 36.875 -20.066406 36.695312 -18.976562 36.34375 -17.90625 Z M 33.09375 -7.375 "/></g></g></g><g fill="#3f3f3f" fill-opacity="1"><g transform="translate(185.674583, 210.603772)"><g><path d="M 14.046875 -28.28125 C 16.117188 -28.28125 17.632812 -27.882812 18.59375 -27.09375 C 19.5625 -26.3125 20.046875 -25.242188 20.046875 -23.890625 C 20.046875 -23.078125 19.921875 -22.296875 19.671875 -21.546875 L 14.75 -5.5625 C 14.644531 -5.132812 14.59375 -4.757812 14.59375 -4.4375 C 14.59375 -3.96875 14.679688 -3.597656 14.859375 -3.328125 C 15.035156 -3.066406 15.285156 -2.8125 15.609375 -2.5625 C 15.859375 -2.3125 16.035156 -2.101562 16.140625 -1.9375 C 16.242188 -1.78125 16.257812 -1.582031 16.1875 -1.34375 C 16.007812 -0.875 15.65625 -0.53125 15.125 -0.3125 C 14.59375 -0.101562 13.773438 0 12.671875 0 L 0.484375 0 C -0.441406 0 -1.117188 -0.148438 -1.546875 -0.453125 C -1.984375 -0.753906 -2.128906 -1.15625 -1.984375 -1.65625 C -1.835938 -2.082031 -1.460938 -2.457031 -0.859375 -2.78125 C -0.328125 -3.0625 0.113281 -3.398438 0.46875 -3.796875 C 0.832031 -4.191406 1.140625 -4.816406 1.390625 -5.671875 L 6.03125 -21.109375 C 6.144531 -21.429688 6.203125 -21.703125 6.203125 -21.921875 C 6.203125 -22.304688 6.109375 -22.613281 5.921875 -22.84375 C 5.742188 -23.082031 5.476562 -23.328125 5.125 -23.578125 C 4.769531 -23.859375 4.519531 -24.101562 4.375 -24.3125 C 4.238281 -24.53125 4.222656 -24.816406 4.328125 -25.171875 C 4.535156 -25.992188 5.65625 -26.71875 7.6875 -27.34375 C 9.71875 -27.96875 11.835938 -28.28125 14.046875 -28.28125 Z M 17.640625 -40.09375 C 19.023438 -40.09375 20.179688 -39.632812 21.109375 -38.71875 C 22.035156 -37.8125 22.5 -36.703125 22.5 -35.390625 C 22.5 -34.460938 22.257812 -33.550781 21.78125 -32.65625 C 21.300781 -31.769531 20.625 -31.050781 19.75 -30.5 C 18.875 -29.945312 17.898438 -29.671875 16.828125 -29.671875 C 15.472656 -29.671875 14.34375 -30.125 13.4375 -31.03125 C 12.53125 -31.9375 12.0625 -33.066406 12.03125 -34.421875 C 12.03125 -35.316406 12.257812 -36.195312 12.71875 -37.0625 C 13.175781 -37.9375 13.832031 -38.660156 14.6875 -39.234375 C 15.550781 -39.804688 16.535156 -40.09375 17.640625 -40.09375 Z M 17.640625 -40.09375 "/></g></g></g><g fill="#3f3f3f" fill-opacity="1"><g transform="translate(205.237299, 210.603772)"><g><path d="M 33.09375 -7.375 C 33.019531 -7.226562 32.984375 -7.015625 32.984375 -6.734375 C 32.984375 -6.484375 33.046875 -6.285156 33.171875 -6.140625 C 33.296875 -6.003906 33.460938 -5.9375 33.671875 -5.9375 C 34.097656 -5.9375 34.460938 -6.125 34.765625 -6.5 C 35.066406 -6.875 35.273438 -7.0625 35.390625 -7.0625 C 35.566406 -7.0625 35.707031 -6.941406 35.8125 -6.703125 C 35.914062 -6.472656 35.96875 -6.195312 35.96875 -5.875 C 36.007812 -4.84375 35.671875 -3.835938 34.953125 -2.859375 C 34.242188 -1.878906 33.203125 -1.078125 31.828125 -0.453125 C 30.453125 0.171875 28.804688 0.484375 26.890625 0.484375 C 24.535156 0.484375 22.660156 -0.0546875 21.265625 -1.140625 C 19.878906 -2.234375 19.171875 -3.6875 19.140625 -5.5 C 19.140625 -6.820312 19.457031 -8.300781 20.09375 -9.9375 L 23.03125 -17.640625 C 23.21875 -18.097656 23.3125 -18.472656 23.3125 -18.765625 C 23.3125 -19.222656 23.15625 -19.585938 22.84375 -19.859375 C 22.539062 -20.128906 22.175781 -20.265625 21.75 -20.265625 C 20.96875 -20.265625 20.21875 -19.894531 19.5 -19.15625 C 18.789062 -18.425781 18.273438 -17.53125 17.953125 -16.46875 L 14.640625 -5.5625 C 14.503906 -5.164062 14.4375 -4.789062 14.4375 -4.4375 C 14.4375 -4.007812 14.523438 -3.660156 14.703125 -3.390625 C 14.878906 -3.128906 15.128906 -2.851562 15.453125 -2.5625 C 15.703125 -2.351562 15.878906 -2.15625 15.984375 -1.96875 C 16.085938 -1.789062 16.101562 -1.582031 16.03125 -1.34375 C 15.894531 -0.875 15.554688 -0.53125 15.015625 -0.3125 C 14.484375 -0.101562 13.648438 0 12.515625 0 L 0.328125 0 C -0.597656 0 -1.265625 -0.148438 -1.671875 -0.453125 C -2.085938 -0.753906 -2.242188 -1.15625 -2.140625 -1.65625 C -1.992188 -2.082031 -1.617188 -2.457031 -1.015625 -2.78125 C -0.484375 -3.0625 -0.0390625 -3.398438 0.3125 -3.796875 C 0.675781 -4.191406 0.984375 -4.816406 1.234375 -5.671875 L 5.984375 -21.109375 C 6.054688 -21.285156 6.09375 -21.535156 6.09375 -21.859375 C 6.09375 -22.253906 6.007812 -22.554688 5.84375 -22.765625 C 5.6875 -22.984375 5.429688 -23.253906 5.078125 -23.578125 C 4.722656 -23.859375 4.472656 -24.101562 4.328125 -24.3125 C 4.179688 -24.53125 4.164062 -24.816406 4.28125 -25.171875 C 4.488281 -25.992188 5.609375 -26.71875 7.640625 -27.34375 C 9.671875 -27.96875 11.789062 -28.28125 14 -28.28125 C 15.78125 -28.28125 17.1875 -27.789062 18.21875 -26.8125 C 19.257812 -25.832031 19.726562 -24.46875 19.625 -22.71875 C 21.082031 -24.820312 22.628906 -26.273438 24.265625 -27.078125 C 25.910156 -27.878906 27.691406 -28.28125 29.609375 -28.28125 C 31.785156 -28.28125 33.539062 -27.617188 34.875 -26.296875 C 36.207031 -24.984375 36.875 -23.273438 36.875 -21.171875 C 36.875 -20.066406 36.695312 -18.976562 36.34375 -17.90625 Z M 33.09375 -7.375 "/></g></g></g><g fill="#3f3f3f" fill-opacity="1"><g transform="translate(243.507533, 210.603772)"><g><path d="M 32.390625 -36.984375 C 33.535156 -36.984375 34.648438 -36.742188 35.734375 -36.265625 C 36.816406 -35.785156 37.707031 -35.125 38.40625 -34.28125 C 39.101562 -33.445312 39.453125 -32.550781 39.453125 -31.59375 C 39.453125 -29.488281 38.023438 -28.4375 35.171875 -28.4375 C 34.347656 -28.4375 33.710938 -28.5 33.265625 -28.625 C 32.828125 -28.75 32.304688 -28.953125 31.703125 -29.234375 C 31.585938 -28.984375 31.53125 -28.628906 31.53125 -28.171875 C 31.53125 -27.597656 31.628906 -26.921875 31.828125 -26.140625 C 32.023438 -25.359375 32.265625 -24.628906 32.546875 -23.953125 C 33.296875 -22.847656 33.671875 -21.523438 33.671875 -19.984375 C 33.671875 -19.304688 33.582031 -18.488281 33.40625 -17.53125 C 32.976562 -15.675781 32.039062 -13.984375 30.59375 -12.453125 C 29.15625 -10.921875 27.304688 -9.71875 25.046875 -8.84375 C 22.785156 -7.96875 20.300781 -7.53125 17.59375 -7.53125 C 15.519531 -7.53125 13.578125 -7.675781 11.765625 -7.96875 C 11.222656 -7.5 10.953125 -6.925781 10.953125 -6.25 C 10.953125 -5.789062 11.164062 -5.410156 11.59375 -5.109375 C 12.019531 -4.804688 12.734375 -4.65625 13.734375 -4.65625 L 21.75 -4.65625 C 24.5 -4.65625 26.640625 -4.179688 28.171875 -3.234375 C 29.703125 -2.285156 30.46875 -0.941406 30.46875 0.796875 C 30.46875 1.441406 30.359375 2.101562 30.140625 2.78125 C 29.710938 4.164062 28.742188 5.457031 27.234375 6.65625 C 25.722656 7.851562 23.59375 8.820312 20.84375 9.5625 C 18.101562 10.3125 14.769531 10.6875 10.84375 10.6875 C 7.351562 10.6875 4.394531 10.382812 1.96875 9.78125 C -0.445312 9.175781 -2.25 8.347656 -3.4375 7.296875 C -4.632812 6.242188 -5.234375 5.078125 -5.234375 3.796875 C -5.234375 3.515625 -5.164062 3.085938 -5.03125 2.515625 C -4.707031 1.484375 -3.984375 0.640625 -2.859375 -0.015625 C -1.734375 -0.679688 0.109375 -1.125 2.671875 -1.34375 C 1.816406 -2.15625 1.390625 -3.132812 1.390625 -4.28125 C 1.390625 -4.664062 1.441406 -5.070312 1.546875 -5.5 C 2.117188 -7.351562 3.796875 -8.726562 6.578125 -9.625 C 3.898438 -11.082031 2.5625 -13.21875 2.5625 -16.03125 C 2.5625 -16.820312 2.671875 -17.644531 2.890625 -18.5 C 3.316406 -20.351562 4.257812 -22.035156 5.71875 -23.546875 C 7.175781 -25.054688 9.046875 -26.253906 11.328125 -27.140625 C 13.609375 -28.035156 16.101562 -28.484375 18.8125 -28.484375 C 23.050781 -28.484375 26.382812 -27.929688 28.8125 -26.828125 C 28.28125 -27.648438 27.859375 -28.53125 27.546875 -29.46875 C 27.242188 -30.414062 27.09375 -31.285156 27.09375 -32.078125 C 27.09375 -33.429688 27.53125 -34.585938 28.40625 -35.546875 C 29.28125 -36.503906 30.609375 -36.984375 32.390625 -36.984375 Z M 20.796875 -18.015625 C 21.367188 -19.828125 21.65625 -21.21875 21.65625 -22.1875 C 21.65625 -23.394531 21.132812 -24 20.09375 -24 C 19.207031 -24 18.429688 -23.5625 17.765625 -22.6875 C 17.109375 -21.8125 16.441406 -20.253906 15.765625 -18.015625 C 15.191406 -16.160156 14.90625 -14.753906 14.90625 -13.796875 C 14.90625 -12.617188 15.40625 -12.03125 16.40625 -12.03125 C 17.300781 -12.03125 18.085938 -12.472656 18.765625 -13.359375 C 19.441406 -14.253906 20.117188 -15.804688 20.796875 -18.015625 Z M 10.15625 0.75 C 9.15625 0.75 8.25 0.695312 7.4375 0.59375 C 7 1.125 6.78125 1.832031 6.78125 2.71875 C 6.820312 3.613281 7.1875 4.253906 7.875 4.640625 C 8.570312 5.035156 9.65625 5.234375 11.125 5.234375 C 12.90625 5.234375 14.351562 4.96875 15.46875 4.4375 C 16.59375 3.90625 17.15625 3.140625 17.15625 2.140625 C 17.15625 1.710938 16.992188 1.375 16.671875 1.125 C 16.359375 0.875 15.894531 0.75 15.28125 0.75 Z M 10.15625 0.75 "/></g></g></g><g fill="#3f3f3f" fill-opacity="1"><g transform="translate(126.250081, 246.072926)"><g><path d="M 12.5625 -14.109375 C 12.457031 -15.046875 12.007812 -15.769531 11.21875 -16.28125 C 10.4375 -16.789062 9.476562 -17.046875 8.34375 -17.046875 C 7.09375 -17.046875 6.085938 -16.75 5.328125 -16.15625 C 4.566406 -15.570312 4.1875 -14.832031 4.1875 -13.9375 C 4.1875 -13.257812 4.394531 -12.710938 4.8125 -12.296875 C 5.226562 -11.878906 5.71875 -11.554688 6.28125 -11.328125 C 6.84375 -11.097656 7.359375 -10.925781 7.828125 -10.8125 L 9.734375 -10.296875 C 10.222656 -10.160156 10.769531 -9.976562 11.375 -9.75 C 11.976562 -9.53125 12.554688 -9.222656 13.109375 -8.828125 C 13.671875 -8.441406 14.128906 -7.945312 14.484375 -7.34375 C 14.847656 -6.738281 15.03125 -5.992188 15.03125 -5.109375 C 15.03125 -4.085938 14.765625 -3.164062 14.234375 -2.34375 C 13.703125 -1.53125 12.929688 -0.878906 11.921875 -0.390625 C 10.910156 0.0859375 9.679688 0.328125 8.234375 0.328125 C 6.210938 0.328125 4.609375 -0.144531 3.421875 -1.09375 C 2.234375 -2.050781 1.582031 -3.304688 1.46875 -4.859375 L 3.828125 -4.859375 C 3.890625 -4.140625 4.128906 -3.546875 4.546875 -3.078125 C 4.960938 -2.617188 5.492188 -2.28125 6.140625 -2.0625 C 6.785156 -1.84375 7.484375 -1.734375 8.234375 -1.734375 C 9.097656 -1.734375 9.875 -1.875 10.5625 -2.15625 C 11.257812 -2.4375 11.8125 -2.832031 12.21875 -3.34375 C 12.625 -3.851562 12.828125 -4.453125 12.828125 -5.140625 C 12.828125 -5.765625 12.648438 -6.273438 12.296875 -6.671875 C 11.953125 -7.066406 11.492188 -7.382812 10.921875 -7.625 C 10.359375 -7.875 9.742188 -8.085938 9.078125 -8.265625 L 6.765625 -8.9375 C 5.296875 -9.351562 4.128906 -9.953125 3.265625 -10.734375 C 2.410156 -11.523438 1.984375 -12.550781 1.984375 -13.8125 C 1.984375 -14.875 2.269531 -15.796875 2.84375 -16.578125 C 3.414062 -17.367188 4.1875 -17.984375 5.15625 -18.421875 C 6.125 -18.859375 7.210938 -19.078125 8.421875 -19.078125 C 9.628906 -19.078125 10.703125 -18.859375 11.640625 -18.421875 C 12.585938 -17.992188 13.335938 -17.40625 13.890625 -16.65625 C 14.453125 -15.90625 14.75 -15.054688 14.78125 -14.109375 Z M 12.5625 -14.109375 "/></g></g></g><g fill="#3f3f3f" fill-opacity="1"><g transform="translate(142.744972, 246.072926)"><g><path d="M 6.140625 0.328125 C 5.242188 0.328125 4.429688 0.160156 3.703125 -0.171875 C 2.972656 -0.515625 2.394531 -1.007812 1.96875 -1.65625 C 1.539062 -2.300781 1.328125 -3.082031 1.328125 -4 C 1.328125 -4.8125 1.484375 -5.46875 1.796875 -5.96875 C 2.117188 -6.476562 2.546875 -6.875 3.078125 -7.15625 C 3.609375 -7.445312 4.195312 -7.664062 4.84375 -7.8125 C 5.488281 -7.957031 6.140625 -8.070312 6.796875 -8.15625 C 7.660156 -8.269531 8.359375 -8.351562 8.890625 -8.40625 C 9.421875 -8.46875 9.8125 -8.566406 10.0625 -8.703125 C 10.3125 -8.847656 10.4375 -9.097656 10.4375 -9.453125 L 10.4375 -9.515625 C 10.4375 -10.421875 10.1875 -11.125 9.6875 -11.625 C 9.195312 -12.132812 8.457031 -12.390625 7.46875 -12.390625 C 6.425781 -12.390625 5.609375 -12.160156 5.015625 -11.703125 C 4.429688 -11.253906 4.019531 -10.769531 3.78125 -10.25 L 1.734375 -10.984375 C 2.097656 -11.847656 2.585938 -12.519531 3.203125 -13 C 3.816406 -13.476562 4.488281 -13.8125 5.21875 -14 C 5.957031 -14.195312 6.679688 -14.296875 7.390625 -14.296875 C 7.835938 -14.296875 8.359375 -14.238281 8.953125 -14.125 C 9.546875 -14.019531 10.117188 -13.800781 10.671875 -13.46875 C 11.222656 -13.144531 11.679688 -12.648438 12.046875 -11.984375 C 12.421875 -11.316406 12.609375 -10.421875 12.609375 -9.296875 L 12.609375 0 L 10.4375 0 L 10.4375 -1.90625 L 10.328125 -1.90625 C 10.179688 -1.601562 9.9375 -1.273438 9.59375 -0.921875 C 9.25 -0.578125 8.789062 -0.28125 8.21875 -0.03125 C 7.65625 0.207031 6.960938 0.328125 6.140625 0.328125 Z M 6.46875 -1.625 C 7.320312 -1.625 8.046875 -1.789062 8.640625 -2.125 C 9.234375 -2.457031 9.679688 -2.890625 9.984375 -3.421875 C 10.285156 -3.960938 10.4375 -4.523438 10.4375 -5.109375 L 10.4375 -7.09375 C 10.34375 -6.976562 10.140625 -6.875 9.828125 -6.78125 C 9.523438 -6.695312 9.171875 -6.625 8.765625 -6.5625 C 8.367188 -6.5 7.976562 -6.441406 7.59375 -6.390625 C 7.21875 -6.347656 6.914062 -6.3125 6.6875 -6.28125 C 6.125 -6.207031 5.597656 -6.085938 5.109375 -5.921875 C 4.628906 -5.765625 4.238281 -5.523438 3.9375 -5.203125 C 3.632812 -4.878906 3.484375 -4.441406 3.484375 -3.890625 C 3.484375 -3.140625 3.765625 -2.570312 4.328125 -2.1875 C 4.890625 -1.8125 5.601562 -1.625 6.46875 -1.625 Z M 6.46875 -1.625 "/></g></g></g><g fill="#3f3f3f" fill-opacity="1"><g transform="translate(157.329535, 246.072926)"><g><path d="M 4.15625 -8.484375 L 4.15625 0 L 1.984375 0 L 1.984375 -14.109375 L 4.078125 -14.109375 L 4.078125 -11.90625 L 4.265625 -11.90625 C 4.597656 -12.625 5.097656 -13.203125 5.765625 -13.640625 C 6.441406 -14.078125 7.3125 -14.296875 8.375 -14.296875 C 9.800781 -14.296875 10.953125 -13.859375 11.828125 -12.984375 C 12.710938 -12.109375 13.15625 -10.769531 13.15625 -8.96875 L 13.15625 0 L 10.984375 0 L 10.984375 -8.828125 C 10.984375 -9.929688 10.695312 -10.789062 10.125 -11.40625 C 9.550781 -12.03125 8.757812 -12.34375 7.75 -12.34375 C 6.71875 -12.34375 5.859375 -12.007812 5.171875 -11.34375 C 4.492188 -10.675781 4.15625 -9.722656 4.15625 -8.484375 Z M 4.15625 -8.484375 "/></g></g></g><g fill="#3f3f3f" fill-opacity="1"><g transform="translate(172.465161, 246.072926)"><g/></g></g><g fill="#3f3f3f" fill-opacity="1"><g transform="translate(179.739079, 246.072926)"><g><path d="M 9.484375 -18.8125 L 11.765625 -18.8125 L 11.765625 -5.359375 C 11.765625 -3.554688 11.273438 -2.171875 10.296875 -1.203125 C 9.328125 -0.234375 8.023438 0.25 6.390625 0.25 C 5.367188 0.25 4.453125 0.0625 3.640625 -0.3125 C 2.835938 -0.6875 2.207031 -1.222656 1.75 -1.921875 C 1.289062 -2.617188 1.0625 -3.445312 1.0625 -4.40625 L 3.3125 -4.40625 C 3.3125 -3.613281 3.597656 -2.972656 4.171875 -2.484375 C 4.753906 -2.003906 5.492188 -1.765625 6.390625 -1.765625 C 7.378906 -1.765625 8.140625 -2.070312 8.671875 -2.6875 C 9.210938 -3.300781 9.484375 -4.191406 9.484375 -5.359375 Z M 9.484375 -18.8125 "/></g></g></g><g fill="#3f3f3f" fill-opacity="1"><g transform="translate(193.772593, 246.072926)"><g><path d="M 7.71875 0.296875 C 6.445312 0.296875 5.332031 -0.00390625 4.375 -0.609375 C 3.414062 -1.222656 2.664062 -2.070312 2.125 -3.15625 C 1.59375 -4.25 1.328125 -5.523438 1.328125 -6.984375 C 1.328125 -8.453125 1.59375 -9.734375 2.125 -10.828125 C 2.664062 -11.929688 3.414062 -12.785156 4.375 -13.390625 C 5.332031 -13.992188 6.445312 -14.296875 7.71875 -14.296875 C 8.988281 -14.296875 10.101562 -13.992188 11.0625 -13.390625 C 12.019531 -12.785156 12.765625 -11.929688 13.296875 -10.828125 C 13.835938 -9.734375 14.109375 -8.453125 14.109375 -6.984375 C 14.109375 -5.523438 13.835938 -4.25 13.296875 -3.15625 C 12.765625 -2.070312 12.019531 -1.222656 11.0625 -0.609375 C 10.101562 -0.00390625 8.988281 0.296875 7.71875 0.296875 Z M 7.71875 -1.65625 C 8.6875 -1.65625 9.484375 -1.898438 10.109375 -2.390625 C 10.734375 -2.890625 11.191406 -3.539062 11.484375 -4.34375 C 11.785156 -5.15625 11.9375 -6.035156 11.9375 -6.984375 C 11.9375 -7.921875 11.785156 -8.796875 11.484375 -9.609375 C 11.191406 -10.429688 10.734375 -11.09375 10.109375 -11.59375 C 9.484375 -12.09375 8.6875 -12.34375 7.71875 -12.34375 C 6.75 -12.34375 5.953125 -12.09375 5.328125 -11.59375 C 4.703125 -11.09375 4.238281 -10.429688 3.9375 -9.609375 C 3.632812 -8.796875 3.484375 -7.921875 3.484375 -6.984375 C 3.484375 -6.035156 3.632812 -5.15625 3.9375 -4.34375 C 4.238281 -3.539062 4.703125 -2.890625 5.328125 -2.390625 C 5.953125 -1.898438 6.75 -1.65625 7.71875 -1.65625 Z M 7.71875 -1.65625 "/></g></g></g><g fill="#3f3f3f" fill-opacity="1"><g transform="translate(209.202115, 246.072926)"><g><path d="M 11.984375 -10.953125 L 10.03125 -10.40625 C 9.84375 -10.894531 9.523438 -11.351562 9.078125 -11.78125 C 8.628906 -12.207031 7.929688 -12.421875 6.984375 -12.421875 C 6.117188 -12.421875 5.398438 -12.222656 4.828125 -11.828125 C 4.253906 -11.429688 3.96875 -10.929688 3.96875 -10.328125 C 3.96875 -9.785156 4.160156 -9.359375 4.546875 -9.046875 C 4.941406 -8.734375 5.554688 -8.472656 6.390625 -8.265625 L 8.484375 -7.75 C 10.984375 -7.144531 12.234375 -5.875 12.234375 -3.9375 C 12.234375 -3.125 12.003906 -2.398438 11.546875 -1.765625 C 11.085938 -1.128906 10.441406 -0.625 9.609375 -0.25 C 8.785156 0.113281 7.820312 0.296875 6.71875 0.296875 C 5.28125 0.296875 4.085938 -0.015625 3.140625 -0.640625 C 2.203125 -1.265625 1.609375 -2.175781 1.359375 -3.375 L 3.421875 -3.890625 C 3.804688 -2.378906 4.894531 -1.625 6.6875 -1.625 C 7.695312 -1.625 8.5 -1.835938 9.09375 -2.265625 C 9.695312 -2.691406 10 -3.210938 10 -3.828125 C 10 -4.816406 9.300781 -5.476562 7.90625 -5.8125 L 5.546875 -6.359375 C 4.253906 -6.660156 3.304688 -7.132812 2.703125 -7.78125 C 2.097656 -8.425781 1.796875 -9.238281 1.796875 -10.21875 C 1.796875 -11.007812 2.019531 -11.710938 2.46875 -12.328125 C 2.925781 -12.941406 3.546875 -13.421875 4.328125 -13.765625 C 5.109375 -14.117188 5.992188 -14.296875 6.984375 -14.296875 C 8.378906 -14.296875 9.476562 -13.988281 10.28125 -13.375 C 11.082031 -12.757812 11.648438 -11.953125 11.984375 -10.953125 Z M 11.984375 -10.953125 "/></g></g></g><g fill="#3f3f3f" fill-opacity="1"><g transform="translate(222.721309, 246.072926)"><g><path d="M 7.90625 0.296875 C 6.539062 0.296875 5.363281 -0.00390625 4.375 -0.609375 C 3.394531 -1.210938 2.640625 -2.054688 2.109375 -3.140625 C 1.585938 -4.234375 1.328125 -5.503906 1.328125 -6.953125 C 1.328125 -8.390625 1.585938 -9.660156 2.109375 -10.765625 C 2.640625 -11.878906 3.378906 -12.742188 4.328125 -13.359375 C 5.285156 -13.984375 6.40625 -14.296875 7.6875 -14.296875 C 8.414062 -14.296875 9.140625 -14.171875 9.859375 -13.921875 C 10.578125 -13.679688 11.226562 -13.285156 11.8125 -12.734375 C 12.40625 -12.191406 12.875 -11.46875 13.21875 -10.5625 C 13.570312 -9.664062 13.75 -8.554688 13.75 -7.234375 L 13.75 -6.328125 L 3.5 -6.328125 C 3.550781 -4.816406 3.976562 -3.660156 4.78125 -2.859375 C 5.582031 -2.054688 6.625 -1.65625 7.90625 -1.65625 C 8.75 -1.65625 9.476562 -1.835938 10.09375 -2.203125 C 10.707031 -2.566406 11.15625 -3.117188 11.4375 -3.859375 L 13.53125 -3.265625 C 13.195312 -2.203125 12.53125 -1.34375 11.53125 -0.6875 C 10.539062 -0.03125 9.332031 0.296875 7.90625 0.296875 Z M 3.5 -8.203125 L 11.546875 -8.203125 C 11.546875 -9.390625 11.195312 -10.375 10.5 -11.15625 C 9.800781 -11.945312 8.863281 -12.34375 7.6875 -12.34375 C 6.851562 -12.34375 6.132812 -12.148438 5.53125 -11.765625 C 4.925781 -11.378906 4.445312 -10.867188 4.09375 -10.234375 C 3.75 -9.609375 3.550781 -8.929688 3.5 -8.203125 Z M 3.5 -8.203125 "/></g></g></g></svg>